<?xml version="1.0" encoding="UTF-8" standalone="no"?>
<!-- Created with Inkscape (http://www.inkscape.org/) -->

<svg
   width="168.16692mm"
   height="128.41341mm"
   viewBox="0 0 168.16692 128.41341"
   version="1.1"
   id="svg5"
   inkscape:version="1.1.1 (3bf5ae0d25, 2021-09-20)"
   sodipodi:docname="logo-white.svg"
   xmlns:inkscape="http://www.inkscape.org/namespaces/inkscape"
   xmlns:sodipodi="http://sodipodi.sourceforge.net/DTD/sodipodi-0.dtd"
   xmlns="http://www.w3.org/2000/svg"
   xmlns:svg="http://www.w3.org/2000/svg">
  <sodipodi:namedview
     id="namedview7"
     pagecolor="#ffffff"
     bordercolor="#999999"
     borderopacity="1"
     inkscape:pageshadow="0"
     inkscape:pageopacity="0"
     inkscape:pagecheckerboard="true"
     inkscape:document-units="mm"
     showgrid="false"
     fit-margin-top="0"
     fit-margin-left="0"
     fit-margin-right="0"
     fit-margin-bottom="0"
     inkscape:zoom="0.62181538"
     inkscape:cx="311.18561"
     inkscape:cy="19.298333"
     inkscape:window-width="3072"
     inkscape:window-height="1634"
     inkscape:window-x="2293"
     inkscape:window-y="-11"
     inkscape:window-maximized="1"
     inkscape:current-layer="layer1" />
  <defs
     id="defs2" />
  <g
     inkscape:label="Layer 1"
     inkscape:groupmode="layer"
     id="layer1"
     transform="translate(-14.02313,-75.427772)">
    <g
       id="g1016"
       transform="translate(-11.488539,0.42550564)"
       style="fill:#ffffff">
      <path
         style="fill:#ffffff;fill-opacity:1;stroke-width:0.328764"
         d="m 74.713245,140.1618 c 0.237325,-0.095 0.520884,-0.0833 0.630132,0.0259 0.109245,0.10924 -0.08493,0.18694 -0.431502,0.17267 -0.382994,-0.0158 -0.460895,-0.0937 -0.19863,-0.19863 z m 34.499675,0.007 c 0.22603,-0.0912 0.59588,-0.0912 0.82191,0 0.22603,0.0912 0.0411,0.16582 -0.41096,0.16582 -0.45205,0 -0.63698,-0.0746 -0.41095,-0.16582 z m 34.86953,-0.007 c 0.23733,-0.095 0.52089,-0.0833 0.63014,0.0259 0.10924,0.10924 -0.0849,0.18694 -0.43151,0.17267 -0.38299,-0.0158 -0.46089,-0.0937 -0.19863,-0.19863 z"
         id="path1038" />
      <path
         style="fill:#ffffff;fill-opacity:1;stroke-width:0.328764"
         d="m 102.0623,123.82405 c 0,-0.0683 0.2589,-0.32717 0.57534,-0.57534 0.52144,-0.40894 0.53307,-0.39731 0.12413,0.12413 -0.42949,0.54764 -0.69947,0.7218 -0.69947,0.45121 z"
         id="path1036" />
      <path
         style="fill:#ffffff;fill-opacity:1;stroke-width:0.328764"
         d="m 35.810219,154.03009 c 1.6e-5,-18.44367 0.03974,-25.94052 0.08827,-16.65969 0.04853,9.28083 0.04852,24.3711 -2.9e-5,33.53393 -0.04855,9.16283 -0.08826,1.56942 -0.08824,-16.87424 z M 183.4088,128.38649 c 2.1e-4,-4.33968 0.047,-6.06954 0.10395,-3.84412 0.057,2.22542 0.0568,5.77607 -3.2e-4,7.89034 -0.0572,2.11426 -0.10385,0.29347 -0.10363,-4.04622 z M 74.713245,120.43596 c 0.237325,-0.095 0.520884,-0.0833 0.630132,0.0259 0.109245,0.10924 -0.08493,0.18694 -0.431502,0.17267 -0.382994,-0.0158 -0.460895,-0.0937 -0.19863,-0.19863 z m 69.369205,0 c 0.23733,-0.095 0.52089,-0.0833 0.63014,0.0259 0.10924,0.10924 -0.0849,0.18694 -0.43151,0.17267 -0.38299,-0.0158 -0.46089,-0.0937 -0.19863,-0.19863 z"
         id="path1034" />
      <path
         style="fill:#ffffff;fill-opacity:1;stroke-width:0.328764"
         d="m 183.29297,136.5782 c 0.0158,-0.383 0.0937,-0.4609 0.19863,-0.19863 0.095,0.23732 0.0833,0.52088 -0.0259,0.63013 -0.10925,0.10924 -0.18695,-0.0849 -0.17267,-0.4315 z M 35.677925,120.14 c 0.01577,-0.383 0.09368,-0.4609 0.198628,-0.19863 0.09497,0.23732 0.08329,0.52088 -0.02596,0.63013 -0.109246,0.10924 -0.186949,-0.0849 -0.172673,-0.4315 z m 147.615045,0 c 0.0158,-0.383 0.0937,-0.4609 0.19863,-0.19863 0.095,0.23732 0.0833,0.52088 -0.0259,0.63013 -0.10925,0.10924 -0.18695,-0.0849 -0.17267,-0.4315 z"
         id="path1032" />
      <path
         style="fill:#ffffff;fill-opacity:1;stroke-width:0.328764"
         d="m 70.768077,75.066519 c 0.237325,-0.09497 0.520884,-0.08329 0.630132,0.02595 0.109245,0.109245 -0.08493,0.186948 -0.431503,0.172673 -0.382993,-0.01578 -0.460894,-0.09368 -0.198629,-0.198628 z m 77.259543,0 c 0.23733,-0.09497 0.52089,-0.08329 0.63013,0.02595 0.10925,0.109245 -0.0849,0.186948 -0.4315,0.172673 -0.38299,-0.01578 -0.46089,-0.09368 -0.19863,-0.198628 z"
         id="path1030" />
      <path
         style="fill:#ffffff;fill-opacity:1;stroke-width:0.328764"
         d="m 90.473371,75.044581 c 10.532779,-0.04815 27.768229,-0.04815 38.301009,0 10.53278,0.04815 1.91505,0.08754 -19.15051,0.08754 -21.06555,0 -29.683277,-0.03939 -19.150499,-0.08754 z"
         id="path1028" />
      <path
         style="fill:#ffffff;fill-opacity:1;stroke-width:0.328764"
         d="m 149.01391,181.58606 c 0.23733,-0.095 0.52089,-0.0833 0.63014,0.0259 0.10924,0.10925 -0.0849,0.18695 -0.43151,0.17268 -0.38299,-0.0158 -0.46089,-0.0937 -0.19863,-0.19863 z M 89.62607,171.37245 c 10.60923,-0.0481 28.06659,-0.0481 38.79415,-2e-5 10.72757,0.0481 2.04729,0.0875 -19.28949,0.0875 -21.336786,10e-6 -30.113881,-0.0394 -19.50466,-0.0875 z m -4.962305,-41.04077 c 0.01578,-0.38299 0.09368,-0.46089 0.198626,-0.19863 0.09497,0.23733 0.08329,0.52088 -0.02594,0.63013 -0.109249,0.10925 -0.186949,-0.0849 -0.172674,-0.4315 z"
         id="path1026" />
      <path
         style="fill:#ffffff;fill-opacity:1;stroke-width:0.328764"
         d="m 148.02762,171.39438 c 0.23733,-0.095 0.52089,-0.0833 0.63013,0.0259 0.10925,0.10924 -0.0849,0.18695 -0.4315,0.17267 -0.38299,-0.0158 -0.46089,-0.0937 -0.19863,-0.19862 z M 45.843654,96.207873 c 0,-0.06827 0.258902,-0.327171 0.575337,-0.575337 0.521439,-0.40894 0.533067,-0.397311 0.124127,0.124127 -0.429487,0.547638 -0.699464,0.721794 -0.699464,0.45121 z m 126.860976,-0.45121 c -0.40894,-0.521438 -0.39731,-0.533067 0.12413,-0.124127 0.31643,0.248166 0.57534,0.507067 0.57534,0.575337 0,0.270584 -0.26998,0.09643 -0.69947,-0.45121 z"
         id="path1024" />
      <path
         style="fill:#ffffff;fill-opacity:1;stroke-width:0.328764"
         d="m 91.434325,181.56414 c 10.338025,-0.0482 27.351555,-0.0482 37.807865,-2e-5 10.4563,0.0482 1.99792,0.0876 -18.7964,0.0876 -20.794329,10e-6 -29.349486,-0.0394 -19.011465,-0.0876 z m 88.709435,-13.56158 c 0.32728,-0.36164 0.66903,-0.65753 0.75944,-0.65753 0.0904,0 -0.1034,0.29589 -0.43068,0.65753 -0.32728,0.36164 -0.66903,0.65753 -0.75944,0.65753 -0.0904,0 0.1034,-0.29589 0.43068,-0.65753 z m -60.95977,-37.67088 c 0.0158,-0.38299 0.0937,-0.46089 0.19862,-0.19863 0.095,0.23733 0.0833,0.52088 -0.0259,0.63013 -0.10924,0.10925 -0.18694,-0.0849 -0.17267,-0.4315 z"
         id="path1022" />
      <path
         style="fill:#ffffff;fill-opacity:1;stroke-width:0.328764"
         d="m 90.447997,85.236276 c 10.518823,-0.04814 27.828253,-0.04815 38.465393,-2.2e-5 10.63714,0.04813 2.03083,0.08752 -19.12513,0.08753 -21.155968,1.2e-5 -29.859085,-0.03937 -19.340263,-0.08751 z"
         id="path1020" />
      <path
         style="fill:#ffffff;fill-opacity:1;stroke-width:0.328764"
         d="m 25.553339,159.74122 c 0.131135,-48.73393 -0.0071,-45.67439 2.38643,-52.83136 2.430496,-7.267614 6.486784,-13.67453 11.947505,-18.871115 5.144869,-4.896009 10.759516,-8.259455 17.450974,-10.453978 7.325378,-2.402423 5.552219,-2.329502 53.765062,-2.211097 42.68803,0.104837 43.0942,0.111981 46.02697,0.809657 8.8272,2.099904 15.99665,5.923392 22.23019,11.855418 6.99025,6.652121 11.84974,15.678245 13.66895,25.388985 0.85524,4.56519 0.86907,25.33884 0.0199,29.82664 -1.77866,9.39953 -5.87653,17.4519 -12.23717,24.04618 -6.36723,6.60111 -13.39226,10.66754 -22.67216,13.12373 -3.31102,0.87636 -3.31102,0.87636 -44.22217,0.97684 -40.911155,0.10048 -40.911155,0.10048 -64.27337,10.96903 -12.849218,5.9777 -23.552755,10.94736 -23.785637,11.04369 -0.34449,0.1425 -0.401427,-7.99868 -0.305434,-43.67262 z m 27.420475,19.85027 c 16.705232,-7.80815 16.705232,-7.80815 57.965116,-7.9947 36.02903,-0.1629 41.55165,-0.25267 43.56123,-0.70806 9.86558,-2.23561 17.78984,-7.60942 23.09442,-15.66141 2.31447,-3.5132 3.72744,-6.70588 4.95688,-11.20028 0.8585,-3.13837 0.861,-3.18381 0.861,-15.64055 0,-12.48539 -6.6e-4,-12.49498 -0.86898,-15.67203 -3.84874,-14.079773 -14.29378,-23.928243 -28.42915,-26.805411 -2.70185,-0.549944 -5.7676,-0.590644 -44.49046,-0.590644 -38.699755,0 -41.789884,0.04097 -44.485709,0.589756 -15.493335,3.153982 -26.994644,15.242569 -29.133619,30.621239 -0.452963,3.25668 -0.495195,70.87023 -0.04427,70.87023 0.169568,0 7.825661,-3.51366 17.013538,-7.80814 z M 71.97352,139.48625 c -4.168166,-1.49399 -6.559904,-4.92075 -6.51943,-9.34071 0.08935,-9.75782 13.304179,-13.06438 18.039857,-4.51385 0.884024,1.59616 0.97925,2.05687 0.977123,4.72739 -0.002,2.39838 -0.136786,3.21078 -0.712011,4.28871 -0.871441,1.63301 -3.363973,3.97791 -4.919,4.62765 -1.902216,0.79479 -4.974124,0.88911 -6.866539,0.21081 z m 34.49539,-0.009 c -2.50567,-0.89628 -4.22919,-2.43045 -5.3983,-4.80524 -1.131347,-2.2981 -1.359924,-4.944 -0.63588,-7.36065 0.59957,-2.0012 2.54023,-4.31467 4.58645,-5.46754 1.62839,-0.91746 2.0861,-1.01877 4.60269,-1.01877 2.5166,0 2.97431,0.10131 4.6027,1.01877 2.01366,1.13453 3.98501,3.46013 4.56008,5.37952 0.64065,2.1383 0.4596,5.23397 -0.4161,7.11463 -2.09949,4.5089 -7.33893,6.77136 -11.90164,5.13928 z m 34.78923,0.11718 c -1.43227,-0.46748 -3.38543,-1.7796 -4.4365,-2.98041 -1.34943,-1.54167 -1.99173,-3.29368 -2.14433,-5.84911 -0.14105,-2.3621 -0.0744,-2.71183 0.89122,-4.67318 1.81272,-3.68217 5.17375,-5.62914 9.2331,-5.34854 6.30523,0.43586 10.37937,6.32972 8.60124,12.443 -1.42882,4.91233 -7.27569,7.99747 -12.14473,6.40824 z"
         id="path1018" />
    </g>
  </g>
</svg>
