<?xml version="1.0" encoding="UTF-8" standalone="no"?>
<svg
   version="1.0"
   width="400.000000pt"
   height="224.000000pt"
   viewBox="0 0 400.000000 224.000000"
   preserveAspectRatio="xMidYMid meet"
   id="svg404"
   sodipodi:docname="what_we_do.svg"
   inkscape:version="1.1.1 (3bf5ae0d25, 2021-09-20)"
   xmlns:inkscape="http://www.inkscape.org/namespaces/inkscape"
   xmlns:sodipodi="http://sodipodi.sourceforge.net/DTD/sodipodi-0.dtd"
   xmlns="http://www.w3.org/2000/svg"
   xmlns:svg="http://www.w3.org/2000/svg">
  <defs
     id="defs408" />
  <sodipodi:namedview
     id="namedview406"
     pagecolor="#ffffff"
     bordercolor="#999999"
     borderopacity="1"
     inkscape:pageshadow="0"
     inkscape:pageopacity="0"
     inkscape:pagecheckerboard="0"
     inkscape:document-units="pt"
     showgrid="false"
     inkscape:zoom="2.3370536"
     inkscape:cx="312.78701"
     inkscape:cy="51.774594"
     inkscape:window-width="3072"
     inkscape:window-height="1634"
     inkscape:window-x="2293"
     inkscape:window-y="-11"
     inkscape:window-maximized="1"
     inkscape:current-layer="svg404" />
  <path
     d="m 216,1 c 0,0.5 0.5,1 1.1,1 0.5,0 0.7,-0.5 0.4,-1 -0.3,-0.6 -0.8,-1 -1.1,-1 -0.2,0 -0.4,0.4 -0.4,1 z"
     id="path2"
     style="fill:#000000;stroke:none;stroke-width:0.1" />
  <path
     d="m 240,1 c -0.8,0.5 -2.8,0.8 -4.5,0.5 -2.8,-0.6 -2.9,-0.5 -1.1,1 1.1,0.8 1.4,1.5 0.8,1.5 -0.7,0 -1.2,1.2 -1.2,2.7 0,1.9 0.3,2.4 0.9,1.5 0.6,-1 1,-1 2.1,0.3 0.7,0.8 0.9,1.5 0.4,1.5 -0.4,0 0.1,0.6 1.2,1.4 1,0.8 1.5,1.8 1.1,2.3 -1,1 -5.7,1.2 -5.7,0.2 0,-0.3 -1.1,-0.4 -2.5,-0.1 -1.4,0.2 -2.2,0.8 -2,1.3 0.3,0.4 1.2,0.6 2,0.3 0.8,-0.4 3.3,0.3 5.5,1.5 4,2.1 5.1,1.7 2.8,-0.8 -1.1,-1.1 -1,-1.3 0.4,-0.8 1.3,0.4 1.8,-0.2 2.4,-2.6 0.4,-1.8 0.9,-2.6 1.2,-1.8 0.3,0.9 0.6,1 1.2,0.2 0.4,-0.8 1.4,-0.9 3.1,-0.3 3.2,1.2 6.9,-0.2 6.9,-2.6 0,-2.2 -1.5,-3.6 -4.8,-4.7 -1.9,-0.5 -2.3,-0.3 -2,1.1 0.2,0.9 -0.3,1.9 -0.9,2.1 -0.8,0.3 -1.3,-0.6 -1.4,-2.4 0,-1.5 -0.3,-2.2 -0.6,-1.5 -0.3,0.8 -1,0.6 -2.1,-0.8 -1.3,-1.5 -2.1,-1.7 -3.2,-1 z m 1.7,6.2 c -0.3,2.2 -0.4,2.1 -1.1,-0.4 -0.5,-1.6 -0.5,-3.6 0,-4.5 0.7,-1.6 0.8,-1.5 1.1,0.4 0.3,1.3 0.3,3.3 0,4.5 z M 239,6 c 0,0.5 -0.4,1 -1,1 -0.5,0 -1,-0.5 -1,-1 0,-0.6 0.5,-1 1,-1 0.6,0 1,0.4 1,1 z m 13.4,0.5 c -0.6,1.6 -3.4,2.1 -3.4,0.7 0,-1.3 1.1,-2.2 2.6,-2.2 0.8,0 1.1,0.6 0.8,1.5 z M 245,6.4 c 0,0.3 -0.4,0.8 -1,1.1 -0.5,0.3 -1,0.1 -1,-0.4 0,-0.6 0.5,-1.1 1,-1.1 0.6,0 1,0.2 1,0.4 z"
     id="path4"
     style="fill:#000000;stroke:none;stroke-width:0.1" />
  <path
     d="m 206.7,1.6 c -0.6,1 0.9,4.2 1.6,3.4 0.3,-0.3 0.1,-1.4 -0.3,-2.4 -0.3,-1.1 -0.9,-1.5 -1.3,-1 z"
     id="path6"
     style="fill:#000000;stroke:none;stroke-width:0.1" />
  <path
     d="m 219,2.1 c 0,0.5 0.5,0.7 1,0.4 0.6,-0.3 1,-0.8 1,-1.1 0,-0.2 -0.4,-0.4 -1,-0.4 -0.5,0 -1,0.5 -1,1.1 z"
     id="path8"
     style="fill:#000000;stroke:none;stroke-width:0.1" />
  <path
     d="m 227,2.1 c 0,0.5 0.3,0.9 0.8,1 0.4,0 1.5,0.2 2.5,0.4 0.9,0.2 1.7,0 1.7,-0.5 0,-0.4 -1.1,-1 -2.5,-1.2 C 228.1,1.5 227,1.7 227,2.1 Z"
     id="path10"
     style="fill:#000000;stroke:none;stroke-width:0.1" />
  <path
     d="m 209.8,5 c -1.4,2.5 -1.4,2.6 0.6,2.6 1.7,-0.1 2,0.4 1.8,2.4 -0.2,1.4 -1.3,3.3 -2.5,4.2 l -2.2,1.8 h 2.3 c 1.4,0 2.2,-0.6 2.2,-1.8 0.1,-1.5 0.2,-1.5 1.6,0.3 0.8,1.1 1.2,2.5 1,3.2 -0.6,1.5 1,1.8 1.9,0.3 0.3,-0.6 1.7,-0.7 3.1,-0.4 2,0.5 2.4,0.2 2.4,-1.5 0,-1.2 -0.6,-2.1 -1.5,-2.1 -0.8,0 -1.5,-0.7 -1.5,-1.6 0,-0.8 -0.5,-1.2 -1.1,-0.8 -0.8,0.4 -0.8,0.9 0,1.7 1.6,1.6 1.4,2.3 -0.9,2.4 -1.5,0.1 -2,-0.4 -2,-2.3 0,-1.3 -0.5,-2.4 -1.2,-2.4 -0.9,0 -0.9,-0.3 0,-1.2 1,-1 1.5,-1 2.2,0.2 0.7,1 1,1.1 1,0.2 0,-0.6 0.9,-1.2 2,-1.2 1.1,0 2,0.7 2,1.5 0,0.8 0.6,1.5 1.4,1.5 0.9,0 1.2,-0.7 0.9,-2 -0.6,-2.2 1.2,-2.8 2,-0.8 0.4,1 0.6,1 0.6,0.1 0.1,-0.7 0.8,-1 1.6,-0.7 0.9,0.4 1.5,0 1.5,-1 0,-0.9 0,-1.9 0.1,-2.3 0,-0.4 -0.5,-0.9 -1.2,-1.2 -0.6,-0.2 -0.9,0.1 -0.6,0.7 0.4,0.5 -0.1,1.6 -1,2.3 -1.4,1.2 -1.6,1.2 -1.1,-0.1 0.3,-0.8 0,-2 -0.7,-2.7 -1.5,-1.4 -2.6,-0.7 -1.8,1.3 0.3,0.8 0,1.4 -0.6,1.4 -1.8,0 -2.5,0.2 -4.1,1 -0.8,0.4 -2.6,0.3 -4,-0.2 -1.9,-0.7 -2.1,-1.1 -1,-1.8 2,-1.2 2,-3.6 0,-3.6 -0.9,0 -2.4,1.2 -3.2,2.6 z"
     id="path12"
     style="fill:#000000;stroke:none;stroke-width:0.1" />
  <path
     d="M 201.6,5.5 C 200.7,6.9 200.4,8 201,8 c 0.5,0 1,-0.5 1,-1 0,-0.6 0.4,-1 0.9,-1 0.5,0 0.7,0.9 0.4,2 -0.3,1.1 -1,1.7 -1.6,1.3 -0.5,-0.3 -0.7,-0.1 -0.3,0.5 0.3,0.5 0.1,1.2 -0.6,1.4 -0.7,0.3 0.4,0.5 2.5,0.6 2.3,0.1 3.5,-0.3 3.2,-0.8 -0.4,-0.6 -1.1,-0.8 -1.6,-0.5 -1.2,0.8 -1.2,-1.1 0.1,-3.5 0.7,-1.3 0.6,-2.1 -0.4,-2.9 -1,-0.9 -1.7,-0.6 -3,1.4 z"
     id="path14"
     style="fill:#000000;stroke:none;stroke-width:0.1" />
  <path
     d="m 254,4.1 c 0,0.6 0.9,0.8 2,0.4 1.2,-0.4 2,-0.2 2,0.5 0,0.6 -0.4,0.8 -1,0.5 -0.5,-0.3 -1,0.1 -1,1 0,0.9 0.5,1.3 1,1 0.6,-0.3 1,-0.1 1,0.4 0,0.6 -0.5,1.1 -1.1,1.1 -0.6,0 -0.9,0.6 -0.6,1.2 0.2,0.7 1.1,1.2 2.1,1 0.9,-0.2 1.6,0.3 1.6,1 0,0.9 0.3,0.9 1,-0.2 0.8,-1.2 1,-1.2 1,0.5 0,1.1 0.4,1.5 0.8,1 0.4,-0.6 1.4,-1 2.2,-0.9 0.8,0 2.4,0.2 3.5,0.3 1.7,0.1 1.8,0.3 0.5,1.1 -1.2,0.8 -1.1,1 0.7,1 1.2,0 2.6,-0.7 3.1,-1.5 1,-2 4.2,-0.9 4.2,1.4 0,1.3 -0.2,1.3 -0.9,0.2 -1.3,-2 -3.8,-0.7 -4.3,2.3 -0.7,3.7 0.5,5 2.7,2.6 1.6,-1.8 1.6,-2 0.2,-2 -1,0 -1.7,-0.4 -1.7,-0.9 0,-1.6 7.9,-0.9 8.5,0.8 0.5,1.2 0.8,1.3 1.4,0.2 0.6,-1 1.3,-1 3,-0.2 1.1,0.6 2.9,1.5 4,2 1,0.5 3,0.8 4.5,0.7 1.6,-0.2 2.6,0.2 2.6,1 0,0.8 0.6,1.1 1.5,0.8 0.8,-0.4 1.2,-1 0.9,-1.5 -0.3,-0.5 -0.1,-0.9 0.3,-0.9 0.5,0 1.4,1 2.1,2.1 1.6,2.5 3.6,1.2 2.6,-1.6 -0.7,-1.8 -0.8,-1.8 -1.5,0.1 -0.7,1.8 -0.8,1.8 -0.8,-0.2 -0.1,-1.9 -0.6,-2.1 -4.5,-2 -2.9,0.1 -4.2,-0.2 -3.9,-1 0.6,-1.5 -5,-1.5 -5.9,0 -0.6,0.8 -0.8,0.7 -0.8,-0.2 0,-0.7 0.7,-1.5 1.5,-1.8 2.1,-0.8 0.9,-2.4 -1.5,-1.9 -1.1,0.2 -2.4,-0.4 -3,-1.3 -0.5,-0.9 -1,-1.2 -1,-0.5 0,0.7 -0.7,1 -1.7,0.7 -1.5,-0.5 -1.5,-0.3 0.2,1.2 1.8,1.5 1.8,1.6 0.2,1 -1,-0.3 -2.1,-0.6 -2.3,-0.6 -0.2,0 -0.4,-1 -0.4,-2.1 0,-1.7 -0.3,-1.9 -1.4,-1 -1.2,1 -1.3,0.8 -0.9,-0.8 0.6,-2.3 -2.1,-3.1 -3,-0.9 -0.4,0.9 -0.6,0.9 -0.6,0.1 C 273,8.7 272.1,8.4 271,8.7 269.6,9.1 269,8.8 269.2,8 269.4,7.3 268.8,6.5 268,6.2 267.2,6 266.8,6.1 267.2,6.5 267.7,7 267,8 265.9,8.8 264.2,9.9 263.6,10 263,9 c -0.5,-0.9 -0.9,-0.9 -1.4,-0.1 -0.4,0.6 -1.3,1.1 -1.9,1.1 -0.7,-0.1 -0.1,-1 1.2,-2.1 1.9,-1.6 2.6,-1.7 3.3,-0.7 0.7,1 0.9,1 0.5,-0.2 C 264.5,6.2 263.4,5.4 262.2,5.2 261,5 260,4.4 260,3.9 260,3.4 258.7,3 257,3 c -1.6,0 -3,0.5 -3,1.1 z"
     id="path16"
     style="fill:#000000;stroke:none;stroke-width:0.1" />
  <path
     d="m 191,4.9 c 0,0.6 0.4,1.3 1,1.6 0.6,0.3 0.7,-0.1 0.4,-0.9 C 191.7,3.8 191,3.5 191,4.9 Z"
     id="path18"
     style="fill:#000000;stroke:none;stroke-width:0.1" />
  <path
     d="m 194.7,7 c 1.2,2.1 1.9,2.5 2.9,1.6 C 199,7.3 197.8,5.5 195,4.7 193.1,4.2 193.1,4.3 194.7,7 Z"
     id="path20"
     style="fill:#000000;stroke:none;stroke-width:0.1" />
  <path
     d="m 215,5.5 c -1,1.3 -0.9,1.5 0.9,1.5 1.4,0 2,-0.4 1.5,-1.2 -0.5,-0.8 -0.2,-0.9 0.9,-0.5 0.9,0.3 1.9,0.2 2.2,-0.3 1,-1.6 -4.2,-1.1 -5.5,0.5 z"
     id="path22"
     style="fill:#000000;stroke:none;stroke-width:0.1" />
  <path
     d="m 184,6.8 c 0,0.5 0.6,1.6 1.3,2.6 1.3,1.8 1.4,1.8 2.1,0.1 0.4,-1.1 0.1,-2.2 -0.6,-2.7 -1.7,-1 -2.8,-1 -2.8,0 z"
     id="path24"
     style="fill:#000000;stroke:none;stroke-width:0.1" />
  <path
     d="m 182,9.6 c 0,0.8 0.5,1.2 1,0.9 0.6,-0.3 1,-1 1,-1.6 0,-0.5 -0.4,-0.9 -1,-0.9 -0.5,0 -1,0.7 -1,1.6 z"
     id="path26"
     style="fill:#000000;stroke:none;stroke-width:0.1" />
  <path
     d="m 189.6,8.9 c -0.4,0.5 0.3,0.7 1.4,0.4 2.3,-0.6 2.6,-1.3 0.6,-1.3 -0.8,0 -1.7,0.4 -2,0.9 z"
     id="path28"
     style="fill:#000000;stroke:none;stroke-width:0.1" />
  <path
     d="m 166.5,11 c -1.2,1.4 -1.5,2.4 -0.9,3 0.7,0.7 1.7,0.4 2.9,-1 1.1,-1.2 1.3,-2 0.6,-2 -0.7,0 -0.9,-0.5 -0.6,-1 1,-1.7 -0.1,-1.1 -2,1 z"
     id="path30"
     style="fill:#000000;stroke:none;stroke-width:0.1" />
  <path
     d="m 175.5,10.9 c 2.2,1.1 3.4,2 2.7,2 -0.7,0.1 -1,0.5 -0.7,1.1 0.3,0.5 0.1,1 -0.4,1 -0.6,0 -1.1,-0.7 -1.1,-1.5 0,-0.8 -0.4,-1.5 -0.9,-1.5 -0.6,0 -0.6,1.2 -0.1,3.1 0.5,1.8 0.8,3.5 0.6,3.8 -0.2,0.3 0.3,1.3 1.2,2.1 1.4,1.3 1.5,1.2 0.9,-0.3 -0.4,-1.1 -0.1,-1.7 0.9,-1.7 0.8,0 1.2,-0.5 0.9,-1 -0.4,-0.6 -1,-0.8 -1.5,-0.5 -0.5,0.3 -1.1,0.1 -1.5,-0.5 -0.3,-0.5 0.1,-1 0.9,-1 0.9,0 1.6,-0.5 1.6,-1 0,-0.6 0.5,-1 1,-1 0.6,0 0.9,0.5 0.8,1.1 -0.2,0.6 0.2,1.3 0.7,1.5 0.6,0.2 1.1,-0.7 1.1,-2.1 C 182.7,13 182.3,12 181.4,12 180.6,12 180,11.3 180,10.4 180,9 179.7,9 178.5,10 c -1,0.9 -1.5,0.9 -1.5,0.1 0,-0.6 -1.2,-1.1 -2.7,-1.1 -2.6,0.1 -2.5,0.2 1.2,1.9 z"
     id="path32"
     style="fill:#000000;stroke:none;stroke-width:0.1" />
  <path
     d="m 230.7,11.6 c 0.6,1.7 1.3,1.7 3.7,-0.1 1.7,-1.3 1.6,-1.4 -1.2,-1.3 -2.1,0.1 -2.9,0.5 -2.5,1.4 z"
     id="path34"
     style="fill:#000000;stroke:none;stroke-width:0.1" />
  <path
     d="m 171,13.1 c 0,0.5 0.5,0.7 1,0.4 0.6,-0.3 1,-0.8 1,-1.1 0,-0.2 -0.4,-0.4 -1,-0.4 -0.5,0 -1,0.5 -1,1.1 z"
     id="path36"
     style="fill:#000000;stroke:none;stroke-width:0.1" />
  <path
     d="m 196.5,13 c 0.3,0.5 -0.1,1 -0.9,1 -0.9,0 -1.6,0.6 -1.6,1.2 0.1,2.3 2.4,4.3 4.8,4.2 2.9,-0.2 3.3,-0.6 2.2,-2.4 -0.7,-1 -1,-1.1 -1,-0.3 0,0.7 -0.9,1.3 -2,1.3 -2.4,0 -2.5,-0.6 -0.5,-2.6 1.9,-2 1.9,-3.4 -0.1,-3.4 -0.8,0 -1.2,0.4 -0.9,1 z"
     id="path38"
     style="fill:#000000;stroke:none;stroke-width:0.1" />
  <path
     d="m 162,14 c 1,0.6 1.1,1 0.3,1 -0.7,0 -1.3,0.5 -1.3,1.1 0,0.8 0.5,0.8 1.5,-0.1 1.6,-1.3 1.1,-3 -0.8,-3 -0.7,0 -0.6,0.4 0.3,1 z"
     id="path40"
     style="fill:#000000;stroke:none;stroke-width:0.1" />
  <path
     d="m 185.3,14.2 c -1.3,2.2 -1.1,5.8 0.4,5.8 0.8,0 1.1,-0.5 0.8,-1 -0.3,-0.6 -0.1,-1 0.4,-1 0.6,0 1.1,0.6 1.1,1.2 0,1.8 2,-1.3 2,-3.1 0,-1.1 -0.3,-1.1 -1.5,-0.1 -1.5,1.2 -2,0.4 -1.6,-2.3 0.2,-1.1 -0.7,-0.8 -1.6,0.5 z"
     id="path42"
     style="fill:#000000;stroke:none;stroke-width:0.1" />
  <path
     d="m 151.5,14.9 c -0.3,0.5 -0.1,1.2 0.5,1.6 0.5,0.3 1,1.3 1,2.1 0,1.1 -0.8,1.4 -2.9,1.1 -2.5,-0.4 -3.3,0 -5.4,3.1 l -2.4,3.7 3.4,0.2 c 1.8,0.2 3.3,-0.1 3.3,-0.6 0,-0.5 0.6,-1.1 1.3,-1.4 0.6,-0.2 -0.1,-0.2 -1.7,0.1 -2.4,0.3 -2.8,0.1 -2.3,-1.3 0.4,-0.9 0.7,-1.9 0.7,-2.1 0,-1.3 5.1,-0.1 5.9,1.3 0.9,1.6 1,1.5 1.1,-0.5 0,-1.4 0.4,-2.1 1.1,-1.7 0.6,0.4 0.8,1.3 0.5,2.1 -0.4,0.9 0.2,1.4 1.5,1.4 1.9,0 1.9,-0.1 0.5,-1.6 -2,-1.9 -2.1,-4.4 -0.2,-4.4 1,0 1.2,-0.7 0.8,-2.3 -0.5,-1.9 -0.7,-1.9 -1,-0.4 -0.2,1.1 -1,1.7 -2,1.4 -1,-0.2 -1.6,-0.9 -1.4,-1.5 0.2,-1.4 -1.4,-1.6 -2.3,-0.3 z"
     id="path44"
     style="fill:#000000;stroke:none;stroke-width:0.1" />
  <path
     d="m 168.5,15 c -0.3,0.5 0.1,1 1,1 0.9,0 1.3,-0.5 1,-1 -0.3,-0.6 -0.8,-1 -1,-1 -0.2,0 -0.7,0.4 -1,1 z"
     id="path46"
     style="fill:#000000;stroke:none;stroke-width:0.1" />
  <path
     d="m 203.2,16 c 0,1.4 0.2,1.9 0.5,1.2 0.2,-0.6 0.2,-1.8 0,-2.5 -0.3,-0.6 -0.5,-0.1 -0.5,1.3 z"
     id="path48"
     style="fill:#000000;stroke:none;stroke-width:0.1" />
  <path
     d="m 223.3,15.9 c -0.1,1.4 0.3,1.8 1.3,1.4 1.6,-0.6 1.4,-2.5 -0.2,-3 -0.5,-0.2 -1,0.6 -1.1,1.6 z"
     id="path50"
     style="fill:#000000;stroke:none;stroke-width:0.1" />
  <path
     d="m 245.4,15.5 c -0.8,2.1 0.5,3.7 2.7,3.2 1,-0.3 2,0 2.3,0.7 0.3,0.8 0.5,0.8 0.5,-0.1 0.1,-1.3 3.8,-0.6 6,1.1 1.2,0.9 1.3,0.8 0.6,-0.3 -0.6,-1 -0.4,-1.3 0.7,-0.9 0.8,0.4 2,-0.2 2.7,-1.4 0.8,-1.3 0.8,-1.8 0.1,-1.3 -0.6,0.4 -1.7,0.1 -2.5,-0.5 -0.8,-0.7 -2,-1 -2.7,-0.7 -0.8,0.4 -0.7,0.6 0.5,0.6 2.7,0.1 2,2.1 -0.8,2.1 -1.9,0 -2.3,-0.4 -1.9,-1.8 0.5,-1.3 0.4,-1.4 -0.4,-0.3 -0.6,0.8 -1.8,1.1 -3.1,0.6 -1.3,-0.4 -2.1,-0.2 -2.1,0.5 0,0.6 -0.4,0.9 -1,0.5 -0.5,-0.3 -0.7,-1.2 -0.3,-2 0.3,-0.8 0.2,-1.5 -0.1,-1.5 -0.4,0 -0.9,0.7 -1.2,1.5 z"
     id="path52"
     style="fill:#000000;stroke:none;stroke-width:0.1" />
  <path
     d="m 227,17.4 c 0,0.2 0.7,0.6 1.5,1 0.8,0.3 1.5,0.1 1.5,-0.4 0,-0.6 -0.7,-1 -1.5,-1 -0.8,0 -1.5,0.2 -1.5,0.4 z"
     id="path54"
     style="fill:#000000;stroke:none;stroke-width:0.1" />
  <path
     d="m 263.8,18.1 c -1,0.6 -1.8,1.5 -1.8,2.2 0,0.9 0.2,0.9 0.8,0.1 0.9,-1.4 5.7,-3 4.8,-1.6 -0.3,0.5 0.2,1.3 1.1,1.6 1,0.4 1.4,0.4 1,0 -0.4,-0.4 -0.3,-1.2 0.2,-1.8 1.2,-1.4 -3.8,-1.8 -6.1,-0.5 z"
     id="path56"
     style="fill:#000000;stroke:none;stroke-width:0.1" />
  <path
     d="m 143.3,19.5 c 0,0.8 0.4,1.2 0.9,0.9 0.4,-0.3 0.8,-0.9 0.8,-1.5 0,-0.5 -0.4,-0.9 -0.8,-0.9 -0.5,0 -0.9,0.7 -0.9,1.5 z"
     id="path58"
     style="fill:#000000;stroke:none;stroke-width:0.1" />
  <path
     d="m 159.3,19.5 c -0.3,0.9 -0.3,1.8 -0.1,2.1 0.3,0.3 0.8,-0.4 1.1,-1.6 0.6,-2.3 -0.1,-2.7 -1,-0.5 z"
     id="path60"
     style="fill:#000000;stroke:none;stroke-width:0.1" />
  <path
     d="m 163,19.4 c 0,0.9 0.5,1.6 1,1.6 0.6,0 1,-0.4 1,-0.9 0,-0.6 -0.4,-1.3 -1,-1.6 -0.5,-0.3 -1,0.1 -1,0.9 z"
     id="path62"
     style="fill:#000000;stroke:none;stroke-width:0.1" />
  <path
     d="m 166.5,19 c -0.3,0.5 0.3,1 1.4,1 1.1,0 2.3,-0.5 2.6,-1 0.3,-0.6 -0.3,-1 -1.4,-1 -1.1,0 -2.3,0.4 -2.6,1 z"
     id="path64"
     style="fill:#000000;stroke:none;stroke-width:0.1" />
  <path
     d="m 279.5,21 c -0.4,0.6 -1.5,0.8 -2.6,0.5 -1,-0.4 -1.9,-0.3 -1.9,0.2 0,1.5 4.8,1.3 5.4,-0.2 0.6,-1.7 0,-2 -0.9,-0.5 z"
     id="path66"
     style="fill:#000000;stroke:none;stroke-width:0.1" />
  <path
     d="m 284.4,21.6 c 0.3,0.9 0.6,2 0.6,2.5 0,1.6 3.9,1 4.9,-0.9 0.9,-1.5 1,-1.5 1.1,0.4 0,1.5 0.8,2.3 2.4,2.6 1.9,0.4 2.4,0.1 2.3,-1.3 -0.1,-1.2 -0.5,-1.5 -1.1,-0.9 -1.5,1.5 -2.9,1.2 -2.3,-0.4 0.8,-2 -2.5,-3 -3.5,-1.1 -1.3,2.1 -2.8,1.9 -2.8,-0.5 0,-1.1 -0.5,-2 -1.1,-2 -0.6,0 -0.8,0.7 -0.5,1.6 z"
     id="path68"
     style="fill:#000000;stroke:none;stroke-width:0.1" />
  <path
     d="m 139.3,21.7 c -1.3,0.2 -2.3,0.8 -2.3,1.3 0,0.5 -0.8,0.7 -1.7,0.4 -1.2,-0.4 -0.9,0.1 0.7,1.5 1.4,1.1 2,2.1 1.4,2.1 -1.5,0 -1.4,3 0.2,3 0.6,0 1.2,-0.6 1.1,-1.3 -0.1,-4.3 0.4,-5.9 1.8,-5.3 0.9,0.3 1.5,0 1.5,-0.9 0,-0.8 -0.1,-1.4 -0.2,-1.4 -0.2,0.1 -1.3,0.4 -2.5,0.6 z"
     id="path70"
     style="fill:#000000;stroke:none;stroke-width:0.1" />
  <path
     d="m 306.2,23.1 c -1.7,2.7 -0.6,3.8 1.3,1.3 1.4,-1.9 1.4,-1.8 1.5,0.2 0,1.5 0.8,2.4 2.5,2.8 1.4,0.4 2.5,1.1 2.5,1.7 0,0.6 0.4,0.8 0.9,0.4 0.5,-0.3 2.7,0.2 4.9,1 3.1,1.3 3.9,2 3.5,3.6 -0.3,1.1 0.1,2.1 1.1,2.5 0.9,0.3 1.3,1 1,1.5 -0.3,0.5 -0.2,0.8 0.3,0.7 1.5,-0.4 5.3,1.3 5.3,2.4 0,1.5 1.3,0.1 1.6,-1.7 0.2,-1.5 -2,-2.7 -3.9,-2 -0.6,0.3 -1.8,-0.4 -2.5,-1.6 -1.6,-2.5 -1,-3.5 0.9,-1.7 0.8,0.7 2.3,1.4 3.4,1.6 1.1,0.1 3.2,0.4 4.6,0.6 1.4,0.2 3.2,0 4,-0.6 1,-0.7 0.5,-0.8 -1.8,-0.4 -1.8,0.3 -3.5,0.1 -3.8,-0.4 -0.3,-0.6 -1.5,-1 -2.5,-1 -1,0 -2.3,-0.6 -2.7,-1.3 -0.4,-0.6 -2.6,-2.1 -4.8,-3.2 -2.2,-1.1 -4.6,-2.6 -5.3,-3.2 -0.7,-0.7 -2.4,-1.3 -3.8,-1.3 -1.5,0 -2.4,-0.6 -2.4,-1.6 0,-1 -0.6,-1.4 -1.4,-1.1 -0.7,0.3 -1.8,0.1 -2.3,-0.4 -0.5,-0.5 -1.4,0 -2.1,1.2 z"
     id="path72"
     style="fill:#000000;stroke:none;stroke-width:0.1" />
  <path
     d="m 299.6,23.7 c 0.6,0.4 1.4,1.5 1.7,2.3 0.5,1.1 0.6,0.9 0.4,-0.4 -0.1,-1.1 -0.9,-2.1 -1.7,-2.3 -1,-0.3 -1.1,-0.2 -0.4,0.4 z"
     id="path74"
     style="fill:#000000;stroke:none;stroke-width:0.1" />
  <path
     d="m 131.5,25 c -0.4,0.6 -1.6,0.8 -2.8,0.4 -1.9,-0.6 -2,-0.5 -0.8,1 1.2,1.4 1.1,1.6 -0.3,1.6 -1,0 -1.5,0.4 -1.1,1 0.3,0.6 1.5,0.6 3,0 1.6,-0.6 2.5,-0.5 2.9,0.3 0.2,0.7 0.5,-0.3 0.5,-2.1 0.1,-3.3 -0.3,-4 -1.4,-2.2 z"
     id="path76"
     style="fill:#000000;stroke:none;stroke-width:0.1" />
  <path
     d="m 122,26.5 c 0,1.1 0.5,2.7 1,3.5 0.8,1.2 1,1.2 1,-0.5 0,-1.1 -0.5,-2.7 -1,-3.5 -0.8,-1.2 -1,-1.2 -1,0.5 z"
     id="path78"
     style="fill:#000000;stroke:none;stroke-width:0.1" />
  <path
     d="m 297,26.6 c 0,0.9 0.5,1.4 1.2,1.2 1.8,-0.6 2.1,-2.8 0.4,-2.8 -0.9,0 -1.6,0.7 -1.6,1.6 z"
     id="path80"
     style="fill:#000000;stroke:none;stroke-width:0.1" />
  <path
     d="m 120,27.5 c -0.1,1.1 -0.2,2.4 -0.1,2.8 0.1,0.5 -0.4,0.5 -1.1,0.1 -1.6,-1 -4.8,-1.3 -4.8,-0.4 0,0.4 0.9,1.5 2,2.5 1.1,1 2,1.3 2,0.7 0,-0.6 0.8,-1.2 1.8,-1.4 1.4,-0.2 1.6,-0.9 1.1,-3.3 -0.5,-2.1 -0.7,-2.4 -0.9,-1 z"
     id="path82"
     style="fill:#000000;stroke:none;stroke-width:0.1" />
  <path
     d="m 303.3,28.4 c 0.2,0.6 1.4,1 2.6,0.8 1.2,-0.2 2.9,0.2 3.7,0.8 0.9,0.8 1.4,0.9 1.4,0.2 0,-1.5 -1.3,-2.2 -5,-2.6 -2,-0.2 -2.9,0.1 -2.7,0.8 z"
     id="path84"
     style="fill:#000000;stroke:none;stroke-width:0.1" />
  <path
     d="m 108.3,30.9 c 0.2,2.9 3.2,3.7 3.4,1 0.1,-1.1 -0.3,-1.9 -0.8,-1.9 -0.6,0 -0.7,0.4 -0.4,1 0.3,0.5 0.2,1 -0.4,1 -0.5,0 -1.2,-0.8 -1.5,-1.8 -0.3,-1 -0.4,-0.8 -0.3,0.7 z"
     id="path86"
     style="fill:#000000;stroke:none;stroke-width:0.1" />
  <path
     d="m 313,32 c -0.9,0.6 -1,1 -0.3,1 0.6,0 1.5,-0.5 1.8,-1 0.8,-1.2 0.4,-1.2 -1.5,0 z"
     id="path88"
     style="fill:#000000;stroke:none;stroke-width:0.1" />
  <path
     d="m 104.1,32.3 c 0.2,0.1 1.3,0.9 2.4,1.7 1.9,1.4 1.9,1.4 0.6,-0.3 -0.7,-0.9 -1.8,-1.7 -2.4,-1.7 -0.6,0 -0.8,0.1 -0.6,0.3 z"
     id="path90"
     style="fill:#000000;stroke:none;stroke-width:0.1" />
  <path
     d="m 316.6,32.9 c -1.8,0.7 -1.6,0.9 1.1,1.9 2.6,0.8 3.3,0.8 3.7,-0.4 0.5,-1.2 0.1,-1.4 -1.5,-0.9 -1.5,0.5 -1.9,0.4 -1.5,-0.4 0.8,-1.2 0.8,-1.2 -1.8,-0.2 z"
     id="path92"
     style="fill:#000000;stroke:none;stroke-width:0.1" />
  <path
     d="m 113,35 c 0,0.5 0.5,1 1.1,1 0.5,0 0.7,-0.5 0.4,-1 -0.3,-0.6 -0.8,-1 -1.1,-1 -0.2,0 -0.4,0.4 -0.4,1 z"
     id="path94"
     style="fill:#000000;stroke:none;stroke-width:0.1" />
  <path
     d="m 92.1,36.9 c -1.3,1.3 -2.2,1.6 -2.9,0.9 -0.6,-0.6 -1.2,-0.6 -1.6,0.1 -0.4,0.6 -0.2,1.1 0.3,1.1 0.6,0 1.1,0.7 1.1,1.5 0,2.4 1.7,1.7 2.4,-1 0.4,-1.4 1.3,-2.5 2.1,-2.5 0.7,0 1.7,-0.5 2,-1 1.1,-1.7 -1.4,-1.1 -3.4,0.9 z"
     id="path96"
     style="fill:#000000;stroke:none;stroke-width:0.1" />
  <path
     d="m 101.3,36 c -2.4,0.4 -3,0.8 -2.4,1.9 0.6,0.9 1.1,1 1.5,0.2 0.4,-0.6 1.2,-1.1 1.7,-1.1 0.6,0 0.7,0.4 0.4,1 -0.3,0.5 -0.2,1 0.3,1 0.9,0 2.6,-3.1 2,-3.4 -0.2,-0.1 -1.8,0.1 -3.5,0.4 z"
     id="path98"
     style="fill:#000000;stroke:none;stroke-width:0.1" />
  <path
     d="m 83,40.6 c 0,1.7 2.2,1.4 2.8,-0.4 C 86,39.5 85.5,39 84.6,39 83.7,39 83,39.7 83,40.6 Z"
     id="path100"
     style="fill:#000000;stroke:none;stroke-width:0.1" />
  <path
     d="m 334,40.1 c 0,1.5 3.9,4.9 5.8,4.9 2,0 5.4,2 3.5,2 -0.7,0 -1,0.6 -0.7,1.4 0.3,0.8 1.2,1.2 2,0.9 0.8,-0.3 2,0 2.8,0.6 1.1,0.9 1.2,0.6 0.8,-1.4 -0.2,-1.4 -0.9,-2.4 -1.5,-2.2 -0.6,0.2 -2.1,-0.7 -3.3,-2.1 -1.3,-1.3 -3.1,-2.3 -4.1,-2.2 -3,0.4 -3.9,0 -2.5,-0.9 1,-0.6 0.9,-1 -0.7,-1.4 -1.2,-0.3 -2.1,-0.1 -2.1,0.4 z"
     id="path102"
     style="fill:#000000;stroke:none;stroke-width:0.1" />
  <path
     d="m 92,40.9 c 0,0.6 0.4,1.3 1,1.6 0.6,0.3 0.7,-0.1 0.4,-0.9 C 92.7,39.8 92,39.5 92,40.9 Z"
     id="path104"
     style="fill:#000000;stroke:none;stroke-width:0.1" />
  <path
     d="m 73.3,43.5 c 0.2,2.4 2.5,5 3.5,4.1 0.3,-0.4 0,-1.2 -0.8,-1.7 -1.1,-0.8 -1.2,-1.2 -0.2,-1.6 0.6,-0.2 1.2,-0.9 1.2,-1.5 0,-0.7 -0.5,-0.6 -1.4,0.1 -1.1,0.9 -1.5,0.9 -2,-0.1 -0.3,-0.7 -0.4,-0.4 -0.3,0.7 z"
     id="path106"
     style="fill:#000000;stroke:none;stroke-width:0.1" />
  <path
     d="m 80.1,45.6 c 0,1.1 0.3,1.4 0.6,0.6 0.3,-0.7 0.2,-1.6 -0.1,-1.9 -0.3,-0.4 -0.6,0.2 -0.5,1.3 z"
     id="path108"
     style="fill:#000000;stroke:none;stroke-width:0.1" />
  <path
     d="m 349,46.1 c 0,0.5 0.5,0.7 1,0.4 0.6,-0.3 1,-0.8 1,-1.1 0,-0.2 -0.4,-0.4 -1,-0.4 -0.5,0 -1,0.5 -1,1.1 z"
     id="path110"
     style="fill:#000000;stroke:none;stroke-width:0.1" />
  <path
     d="m 60,47.7 c 0,0.4 0.5,1.5 1,2.3 0.8,1.3 1,1.3 1,-0.2 0,-0.9 -0.4,-2 -1,-2.3 -0.5,-0.3 -1,-0.3 -1,0.2 z"
     id="path112"
     style="fill:#000000;stroke:none;stroke-width:0.1" />
  <path
     d="m 88,48.1 c 0,0.5 0.5,0.7 1,0.4 0.6,-0.3 1,-0.8 1,-1.1 0,-0.2 -0.4,-0.4 -1,-0.4 -0.5,0 -1,0.5 -1,1.1 z"
     id="path114"
     style="fill:#000000;stroke:none;stroke-width:0.1" />
  <path
     d="m 52.1,50.7 c -0.1,0.6 -0.4,2 -0.7,3 -0.5,1.7 -0.5,1.7 0.6,0 0.6,-1 0.9,-2.3 0.6,-3 -0.3,-0.9 -0.5,-0.9 -0.5,0 z"
     id="path116"
     style="fill:#000000;stroke:none;stroke-width:0.1" />
  <path
     d="m 67.5,51 c -0.3,0.5 -0.2,1 0.4,1 0.5,0 1.3,-0.5 1.6,-1 0.3,-0.6 0.2,-1 -0.4,-1 -0.5,0 -1.3,0.4 -1.6,1 z"
     id="path118"
     style="fill:#000000;stroke:none;stroke-width:0.1" />
  <path
     d="m 350.6,50.9 c -0.3,0.5 0.1,1.1 0.9,1.5 0.9,0.3 1.5,0 1.5,-0.9 0,-1.6 -1.6,-2 -2.4,-0.6 z"
     id="path120"
     style="fill:#000000;stroke:none;stroke-width:0.1" />
  <path
     d="m 354.5,51 c -0.3,0.5 -0.1,1 0.4,1 0.6,0 1.1,-0.5 1.1,-1 0,-0.6 -0.2,-1 -0.4,-1 -0.3,0 -0.8,0.4 -1.1,1 z"
     id="path122"
     style="fill:#000000;stroke:none;stroke-width:0.1" />
  <path
     d="m 81.3,51.7 c -1.6,0.6 -1.7,3.6 -0.1,3.1 0.6,-0.2 1.2,-1.2 1.4,-2.1 0.1,-0.9 0.2,-1.7 0.1,-1.6 -0.1,0 -0.8,0.3 -1.4,0.6 z"
     id="path124"
     style="fill:#000000;stroke:none;stroke-width:0.1" />
  <path
     d="m 57.7,53.1 c 0.7,0.7 1.5,1 1.8,0.7 0.3,-0.3 -0.2,-0.9 -1.2,-1.2 -1.4,-0.6 -1.5,-0.5 -0.6,0.5 z"
     id="path126"
     style="fill:#000000;stroke:none;stroke-width:0.1" />
  <path
     d="m 359.2,53.6 c -1,1.1 -1.7,1.2 -2.7,0.4 -0.9,-0.8 -1.5,-0.8 -2,0 -0.3,0.5 0.1,1 0.9,1 0.9,0 1.6,0.4 1.6,1 0,0.5 0.5,1 1.1,1 0.6,0 1.7,0.7 2.6,1.5 0.8,0.9 1.8,1.3 2.2,1 0.3,-0.4 -0.2,-1.3 -1.2,-2 -1.3,-0.9 -1.7,-2 -1.2,-3.4 0.8,-2.5 0.5,-2.6 -1.3,-0.5 z"
     id="path128"
     style="fill:#000000;stroke:none;stroke-width:0.1" />
  <path
     d="m 54.1,54.6 c 0,1.1 0.3,1.4 0.6,0.6 0.3,-0.7 0.2,-1.6 -0.1,-1.9 -0.3,-0.4 -0.6,0.2 -0.5,1.3 z"
     id="path130"
     style="fill:#000000;stroke:none;stroke-width:0.1" />
  <path
     d="m 73.5,54 c -0.3,0.5 -0.1,1 0.5,1 0.7,0 1,0.6 0.7,1.3 -0.3,0.8 0,1.4 0.7,1.4 0.8,0 1.1,-0.9 0.8,-2.4 -0.5,-2.4 -1.7,-3 -2.7,-1.3 z"
     id="path132"
     style="fill:#000000;stroke:none;stroke-width:0.1" />
  <path
     d="m 351.5,55 c 0.3,0.5 0.8,1 1.1,1 0.2,0 0.4,-0.5 0.4,-1 0,-0.6 -0.5,-1 -1.1,-1 -0.5,0 -0.7,0.4 -0.4,1 z"
     id="path134"
     style="fill:#000000;stroke:none;stroke-width:0.1" />
  <path
     d="m 364.1,56.6 c 0,1.1 0.3,1.4 0.6,0.6 0.3,-0.7 0.2,-1.6 -0.1,-1.9 -0.3,-0.4 -0.6,0.2 -0.5,1.3 z"
     id="path136"
     style="fill:#000000;stroke:none;stroke-width:0.1" />
  <path
     d="m 43.5,58 c -0.3,0.5 0.1,1 1,1 0.9,0 1.3,-0.5 1,-1 -0.3,-0.6 -0.8,-1 -1,-1 -0.2,0 -0.7,0.4 -1,1 z"
     id="path138"
     style="fill:#000000;stroke:none;stroke-width:0.1" />
  <path
     d="m 72.1,59.6 c 0,1.1 0.3,1.4 0.6,0.6 0.3,-0.7 0.2,-1.6 -0.1,-1.9 -0.3,-0.4 -0.6,0.2 -0.5,1.3 z"
     id="path140"
     style="fill:#000000;stroke:none;stroke-width:0.1" />
  <path
     d="m 354,60.1 c 0,1.7 0.3,1.9 1.3,1 0.8,-0.6 1.7,-0.8 2,-0.4 0.4,0.3 0.7,0.2 0.7,-0.4 0,-0.9 -2.2,-2.3 -3.6,-2.3 -0.2,0 -0.4,1 -0.4,2.1 z"
     id="path142"
     style="fill:#000000;stroke:none;stroke-width:0.1" />
  <path
     d="m 39.4,60.5 c -1.8,1.4 -1.8,1.4 0.4,0.8 C 41,61 42,60.4 42,59.9 c 0,-1.2 -0.3,-1.1 -2.6,0.6 z"
     id="path144"
     style="fill:#000000;stroke:none;stroke-width:0.1" />
  <path
     d="m 47.6,60.7 c -0.6,1.4 -0.5,1.5 0.5,0.6 0.7,-0.7 1,-1.5 0.7,-1.8 -0.3,-0.3 -0.9,0.2 -1.2,1.2 z"
     id="path146"
     style="fill:#000000;stroke:none;stroke-width:0.1" />
  <path
     d="m 44,61 c 0,0.5 0.5,1 1.1,1 0.5,0 0.7,-0.5 0.4,-1 -0.3,-0.6 -0.8,-1 -1.1,-1 -0.2,0 -0.4,0.4 -0.4,1 z"
     id="path148"
     style="fill:#000000;stroke:none;stroke-width:0.1" />
  <path
     d="m 66.7,62 c 1.5,1.8 1.9,1.8 3.2,0.5 0.8,-0.8 1.1,-1.8 0.7,-2.2 -0.4,-0.4 -1.1,-0.1 -1.6,0.7 -0.7,1 -1,1.1 -1,0.2 0,-0.6 -0.7,-1.2 -1.5,-1.2 -1.2,0 -1.2,0.3 0.2,2 z"
     id="path150"
     style="fill:#000000;stroke:none;stroke-width:0.1" />
  <path
     d="m 364.3,61.5 c 0.5,1.4 2.9,1.3 3.4,-0.2 0.3,-0.7 -0.4,-1.1 -1.6,-1 -1.2,0.1 -2,0.6 -1.8,1.2 z"
     id="path152"
     style="fill:#000000;stroke:none;stroke-width:0.1" />
  <path
     d="m 40.5,63 c 0.3,0.5 0.8,1 1.1,1 0.2,0 0.4,-0.5 0.4,-1 0,-0.6 -0.5,-1 -1.1,-1 -0.5,0 -0.7,0.4 -0.4,1 z"
     id="path154"
     style="fill:#000000;stroke:none;stroke-width:0.1" />
  <path
     d="m 368,63.5 c 0,0.8 0.5,1.5 1.1,1.5 0.7,0 1.8,0.8 2.5,1.7 1.8,2.5 2.7,1.1 1.3,-2.1 C 371.6,61.8 368,61 368,63.5 Z"
     id="path156"
     style="fill:#000000;stroke:none;stroke-width:0.1" />
  <path
     d="m 35.5,64.1 c -1.1,1.7 -0.2,1.8 1.9,0.3 1.7,-1.2 1.7,-1.4 0.4,-1.4 -0.9,0 -2,0.5 -2.3,1.1 z"
     id="path158"
     style="fill:#000000;stroke:none;stroke-width:0.1" />
  <path
     d="m 50.6,64.3 c 0.3,1 0.9,1.5 1.2,1.2 0.3,-0.3 0,-1.1 -0.7,-1.8 -1,-0.9 -1.1,-0.8 -0.5,0.6 z"
     id="path160"
     style="fill:#000000;stroke:none;stroke-width:0.1" />
  <path
     d="m 360.4,63.7 c 0.4,0.7 0.2,2.1 -0.3,3.2 -0.8,1.5 -0.7,2 0.5,2.5 2.3,0.9 3.1,0.7 1.4,-0.4 -1.2,-0.7 -1.2,-1.2 0.5,-2.9 1,-1.2 1.5,-2.4 1.2,-2.8 -0.4,-0.3 -0.7,-0.1 -0.7,0.7 0,1 -0.4,1 -1.7,-0.1 -1.1,-0.9 -1.4,-1 -0.9,-0.2 z"
     id="path162"
     style="fill:#000000;stroke:none;stroke-width:0.1" />
  <path
     d="m 33.7,68.1 c 0.4,1.3 0.8,1.8 1.1,1 0.2,-0.7 -0.1,-1.8 -0.6,-2.3 -0.8,-0.8 -0.9,-0.4 -0.5,1.3 z"
     id="path164"
     style="fill:#000000;stroke:none;stroke-width:0.1" />
  <path
     d="m 29,68.3 c 0,0.8 0.7,1.7 1.5,2.1 0.8,0.3 1.5,0.2 1.5,-0.3 C 32,69.6 31.3,68.7 30.5,68 29.3,67 29,67 29,68.3 Z"
     id="path166"
     style="fill:#000000;stroke:none;stroke-width:0.1" />
  <path
     d="m 364.7,67.7 c -1.1,1 -0.8,5.5 0.3,4.8 0.6,-0.3 1,-0.1 1,0.6 0,0.8 0.4,0.8 1.5,-0.1 1.6,-1.3 1.2,-2.5 -0.8,-2.5 -0.7,0 -1.1,-0.8 -1.1,-1.8 0.2,-1.9 0.1,-2 -0.9,-1 z"
     id="path168"
     style="fill:#000000;stroke:none;stroke-width:0.1" />
  <path
     d="m 45.5,70.1 c -0.4,1.1 -1,1.7 -1.5,1.4 -0.4,-0.3 -1.1,0.2 -1.4,1.1 -0.4,1.1 0,1.4 1.7,1.2 1.2,-0.2 2.4,-1.2 2.8,-2.3 0.3,-1.3 1.3,-2 2.7,-1.9 1.2,0.1 2.2,-0.2 2.2,-0.6 0,-0.4 -1.3,-0.7 -3,-0.8 -2,0 -3.1,0.5 -3.5,1.9 z"
     id="path170"
     style="fill:#000000;stroke:none;stroke-width:0.1" />
  <path
     d="m 58,69.6 c 0,0.8 0.5,1.2 1,0.9 0.6,-0.4 0.8,-1.1 0.5,-1.6 C 58.6,67.5 58,67.8 58,69.6 Z"
     id="path172"
     style="fill:#000000;stroke:none;stroke-width:0.1" />
  <path
     d="m 24.4,71.8 c 0.3,1.3 0,2.2 -0.7,2.1 -2.3,-0.3 -4,0.1 -3.4,0.8 0.4,0.3 2,0.7 3.6,0.7 2.3,0.1 2.7,-0.2 2.1,-1.4 -0.4,-0.8 -1,-2.2 -1.4,-3 -0.3,-0.8 -0.4,-0.5 -0.2,0.8 z"
     id="path174"
     style="fill:#000000;stroke:none;stroke-width:0.1" />
  <path
     d="m 27,71.4 c 0,0.8 0.5,1.8 1,2.1 0.6,0.3 1,-0.1 1,-0.9 0,-0.8 -0.4,-1.8 -1,-2.1 -0.5,-0.3 -1,0.1 -1,0.9 z"
     id="path176"
     style="fill:#000000;stroke:none;stroke-width:0.1" />
  <path
     d="m 376.3,72.4 c 2.8,2.6 4.7,3.3 4.7,1.8 0,-1.2 -3.3,-3.7 -5.5,-4 -1.7,-0.3 -1.6,0 0.8,2.2 z"
     id="path178"
     style="fill:#000000;stroke:none;stroke-width:0.1" />
  <path
     d="m 41.5,76.1 c -1,1.5 0.3,2.5 1.6,1.2 0.7,-0.7 0.7,-1.3 0.1,-1.7 -0.6,-0.3 -1.4,-0.1 -1.7,0.5 z"
     id="path180"
     style="fill:#000000;stroke:none;stroke-width:0.1" />
  <path
     d="m 365.8,75.6 c -1,0.9 0.2,3.4 1.7,3.4 0.7,0 1.6,0.6 1.8,1.2 0.3,0.7 0.6,0.8 0.6,0.3 0.1,-1.5 -3.4,-5.7 -4.1,-4.9 z"
     id="path182"
     style="fill:#000000;stroke:none;stroke-width:0.1" />
  <path
     d="m 381.6,76.7 c -0.6,1.4 -0.5,1.5 0.5,0.6 0.7,-0.7 1,-1.5 0.7,-1.8 -0.3,-0.3 -0.9,0.2 -1.2,1.2 z"
     id="path184"
     style="fill:#000000;stroke:none;stroke-width:0.1" />
  <path
     d="m 18.8,77.8 c -0.9,1.1 -1,1.4 0,0.8 0.8,-0.5 1.2,0 1.2,1.5 0,1.8 0.2,1.9 1.5,0.9 0.8,-0.7 1.5,-1.8 1.5,-2.5 0,-2.1 -2.7,-2.5 -4.2,-0.7 z"
     id="path186"
     style="fill:#000000;stroke:none;stroke-width:0.1" />
  <path
     d="m 43.3,80.8 c 0,1.2 0.5,2.2 0.9,2.2 1.1,0 1,-1.2 -0.2,-3 -0.7,-1.2 -0.9,-1 -0.7,0.8 z"
     id="path188"
     style="fill:#000000;stroke:none;stroke-width:0.1" />
  <path
     d="m 16.5,80.9 c -0.3,0.6 -1,0.9 -1.5,0.6 -0.5,-0.3 -1.1,-0.1 -1.4,0.4 -0.4,0.5 -0.2,1.3 0.4,1.6 0.6,0.4 0.8,1.5 0.5,2.5 -0.8,2.6 1.2,3.5 2.5,1 0.7,-1.3 0.7,-2 0,-2 -1.4,0 -1.3,-2.7 0.3,-3.3 0.6,-0.2 0.9,-0.7 0.6,-1.1 -0.4,-0.4 -1,-0.2 -1.4,0.3 z"
     id="path190"
     style="fill:#000000;stroke:none;stroke-width:0.1" />
  <path
     d="m 385,82 c 0,0.5 0.5,1 1,1 0.6,0 1,-0.5 1,-1 0,-0.6 -0.4,-1 -1,-1 -0.5,0 -1,0.4 -1,1 z"
     id="path192"
     style="fill:#000000;stroke:none;stroke-width:0.1" />
  <path
     d="m 39.1,83.6 c 0,1.1 0.3,1.4 0.6,0.6 0.3,-0.7 0.2,-1.6 -0.1,-1.9 -0.3,-0.4 -0.6,0.2 -0.5,1.3 z"
     id="path194"
     style="fill:#000000;stroke:none;stroke-width:0.1" />
  <path
     d="m 369,82.4 c 0,0.2 1.1,0.6 2.5,0.8 1.3,0.3 2.2,0.1 1.9,-0.3 C 372.9,82 369,81.6 369,82.4 Z"
     id="path196"
     style="fill:#000000;stroke:none;stroke-width:0.1" />
  <path
     d="m 388,85 c 0,1.8 0.4,2.9 1,2.5 0.6,-0.4 1,0.8 1.1,2.7 0,1.8 0.3,2.6 0.6,1.8 0.3,-0.8 1.1,-1.8 1.7,-2.2 0.8,-0.6 0.8,-0.8 -0.1,-0.8 -0.6,0 -1.4,-1.3 -1.8,-3 -0.9,-4.1 -2.5,-4.8 -2.5,-1 z"
     id="path198"
     style="fill:#000000;stroke:none;stroke-width:0.1" />
  <path
     d="m 376,85 c 0,0.5 0.5,1 1,1 0.6,0 1,-0.5 1,-1 0,-0.6 -0.4,-1 -1,-1 -0.5,0 -1,0.4 -1,1 z"
     id="path200"
     style="fill:#000000;stroke:none;stroke-width:0.1" />
  <path
     d="m 11,89 c 0,1.1 -0.5,2 -1.1,2 -0.5,0 -0.7,0.4 -0.4,1 0.3,0.5 -0.1,1 -0.9,1 -0.8,0 -1.7,0.4 -2,0.9 -0.9,1.4 1.6,0.8 3.9,-0.9 2,-1.5 3,-6 1.3,-6 -0.4,0 -0.8,0.9 -0.8,2 z"
     id="path202"
     style="fill:#000000;stroke:none;stroke-width:0.1" />
  <path
     d="m 375,88.9 c 1.4,2.7 1.3,2.9 -1.5,2.3 -1.4,-0.2 -2.5,0 -2.5,0.7 0,0.5 0.6,0.8 1.3,0.6 1.4,-0.6 3.9,4.2 2.6,5.1 -0.5,0.3 -0.9,1.5 -0.9,2.7 l 0.1,2.2 1.9,-2.3 c 1,-1.2 2.1,-1.8 2.4,-1.3 0.7,1 -3.9,5.1 -5.8,5.1 -0.6,0.1 0,0.8 1.4,1.6 1.4,0.8 1.7,1.3 0.8,1 -2,-0.6 -3.4,1 -1.5,1.7 0.7,0.3 2.1,-0.1 3.2,-0.9 1,-0.8 1.3,-1.4 0.7,-1.4 -1.8,0 -1.5,-1.8 0.7,-4.2 1.1,-1.1 1.7,-2.6 1.4,-3.4 -0.3,-0.8 0,-1.4 0.6,-1.4 0.6,0 1.1,-0.5 1.1,-1.1 0,-0.6 -0.9,-0.8 -2.2,-0.4 -1.6,0.6 -2,0.4 -1.5,-0.8 0.7,-1.8 -1.3,-7.7 -2.6,-7.7 -0.4,0 -0.3,0.9 0.3,1.9 z m 2,4.1 c 0,0.5 -0.5,1 -1.1,1 -0.5,0 -0.7,-0.5 -0.4,-1 0.3,-0.6 0.8,-1 1.1,-1 0.2,0 0.4,0.4 0.4,1 z"
     id="path204"
     style="fill:#000000;stroke:none;stroke-width:0.1" />
  <path
     d="m 37.7,90.5 c 0.3,0.8 0.9,1.2 1.4,0.9 1.2,-0.7 1.1,-1.1 -0.5,-1.7 -1,-0.4 -1.3,-0.1 -0.9,0.8 z"
     id="path206"
     style="fill:#000000;stroke:none;stroke-width:0.1" />
  <path
     d="m 55,92.8 c 0,1.6 1.7,8.8 5,20.7 0.5,1.6 1.7,6.1 2.7,10 1.5,5.7 2.3,7.1 4.1,7.3 1.6,0.3 2.3,-0.3 2.8,-2.5 0.3,-1.5 1.2,-4.8 1.9,-7.3 0.7,-2.5 1.8,-6.5 2.5,-9 0.7,-2.5 1.6,-5.5 2.1,-6.8 0.5,-1.3 0.9,-3.1 0.9,-4.1 0,-2.5 2.8,-4.9 3.4,-3 0.2,0.8 0.9,3.2 1.5,5.4 0.6,2.2 1.8,6.5 2.6,9.5 0.9,3 2.1,7.3 2.7,9.5 1.7,6.8 2.7,8.7 4.4,8.3 1.7,-0.3 4.4,-6.8 4.4,-10.5 0,-1.2 0.5,-2.5 1,-2.8 0.6,-0.3 1,-1.5 1,-2.6 0,-1.1 0.7,-4.4 1.6,-7.2 3.9,-13.3 4.4,-16.2 2.5,-16.2 -1.4,0 -1.7,0.7 -4,9.5 -0.7,2.5 -1.6,5.8 -2.1,7.5 -0.4,1.6 -1.4,5.8 -2.1,9.2 -1.7,8.2 -3.4,8.3 -5,0.4 -0.4,-2 -1.9,-7.9 -3.4,-13.1 -1.4,-5.2 -2.9,-10.5 -3.2,-11.8 -0.5,-2.2 -2.8,-2.9 -4.8,-1.4 -0.6,0.4 -1.6,2.5 -2.3,4.7 -1.4,4.6 -5.7,20.7 -6.6,24.7 -1.2,5.3 -3.2,3.1 -5,-5.5 -0.9,-4.5 -2.2,-10 -2.7,-12.2 -0.6,-2.2 -1.3,-5.4 -1.6,-7 C 58.4,91.6 55,88.8 55,92.8 Z"
     id="path208"
     style="fill:#aad400;stroke:none;stroke-width:0.1" />
  <path
     d="m 110.3,91.7 c -1,0.4 -1.3,5.3 -1.3,19.9 0,18.7 0.1,19.4 2,19.4 1.8,0 2,-0.7 2,-8.3 0,-13.7 2,-17.7 8.8,-17.7 5.1,0 6.1,2.3 6.4,14.5 0.3,9.8 0.5,11 2.2,11.3 1.7,0.4 1.8,-0.4 1.5,-11.8 -0.4,-12.2 -0.4,-12.2 -3.4,-14.6 -3.5,-2.8 -6.4,-3 -10.7,-0.8 -3.9,2 -4.8,0.9 -4.8,-6.3 0,-5.3 -0.5,-6.4 -2.7,-5.6 z"
     id="path210"
     style="fill:#aad400;stroke:none;stroke-width:0.1" />
  <path
     d="m 311,97.9 c 0,7.6 -0.8,8.5 -4.6,5.6 -5.9,-4.5 -14.1,0.9 -15.9,10.5 -0.7,3.7 1.4,11.2 3.8,13.3 3.7,3.4 9.2,4.8 11.3,2.8 0.5,-0.5 1.9,-1.2 3.2,-1.6 1.6,-0.5 2.2,-0.2 2.2,0.9 0,0.9 0.7,1.6 1.5,1.6 1.3,0 1.5,-2.6 1.3,-19.7 -0.2,-14.6 -0.6,-19.7 -1.5,-20.1 -1,-0.3 -1.3,1.5 -1.3,6.7 z m -2.6,10.4 c 5.4,7.1 1.8,19.7 -5.5,19.7 -2.2,0 -4,-0.9 -6,-3.1 -2.4,-2.6 -2.9,-4 -2.9,-8.1 0,-7.8 2.9,-11.7 8.7,-11.8 2.5,0 3.8,0.8 5.7,3.3 z"
     id="path212"
     style="fill:#aad400;stroke:none;stroke-width:0.1" />
  <path
     d="m 11.5,94 c -0.3,0.5 -0.1,1 0.4,1 0.6,0 1.1,-0.5 1.1,-1 0,-0.6 -0.2,-1 -0.4,-1 -0.3,0 -0.8,0.4 -1.1,1 z"
     id="path214"
     style="fill:#000000;stroke:none;stroke-width:0.1" />
  <path
     d="m 33.3,94.5 c -0.3,0.9 -0.3,1.8 -0.1,2.1 0.3,0.3 0.8,-0.4 1.1,-1.6 0.6,-2.3 -0.1,-2.7 -1,-0.5 z"
     id="path216"
     style="fill:#000000;stroke:none;stroke-width:0.1" />
  <path
     d="m 174.7,93.7 c -0.4,0.3 -0.7,2.2 -0.7,4.1 0,2.5 -0.5,3.5 -2,3.9 -1.1,0.3 -2,0.9 -2,1.4 0,0.4 0.9,1.3 2,1.9 1.8,1 2,2.1 2,12.2 0,9.4 0.3,11.3 1.8,12.4 2.2,1.7 6.2,1.8 6.2,0.1 0,-0.7 -1,-1.7 -2.2,-2.2 -2.2,-0.9 -2.3,-1.7 -2.6,-11.8 L 176.9,105 h 2.6 c 3.1,0 3.4,-2.7 0.3,-3.2 -1.9,-0.2 -2.4,-1 -2.6,-4.6 -0.3,-4 -1,-5 -2.5,-3.5 z"
     id="path218"
     style="fill:#aad400;stroke:none;stroke-width:0.1" />
  <path
     d="m 394.4,96.8 c 0.1,1.7 0.6,3.6 1.2,4.2 1.4,1.4 1.1,-3 -0.4,-5.6 -0.8,-1.4 -1,-1.2 -0.8,1.4 z"
     id="path220"
     style="fill:#000000;stroke:none;stroke-width:0.1" />
  <path
     d="m 7.7,97.4 c -0.4,1 -0.1,1.3 0.8,0.9 C 9.3,98 9.7,97.4 9.4,96.9 8.7,95.7 8.3,95.8 7.7,97.4 Z"
     id="path222"
     style="fill:#000000;stroke:none;stroke-width:0.1" />
  <path
     d="m 3.1,99.6 c 0,1.1 0.3,1.4 0.6,0.6 C 4,99.5 3.9,98.6 3.6,98.3 3.3,97.9 3,98.5 3.1,99.6 Z"
     id="path224"
     style="fill:#000000;stroke:none;stroke-width:0.1" />
  <path
     d="m 5.1,99.6 c 0,1.1 0.3,1.4 0.6,0.6 C 6,99.5 5.9,98.6 5.6,98.3 5.3,97.9 5,98.5 5.1,99.6 Z"
     id="path226"
     style="fill:#000000;stroke:none;stroke-width:0.1" />
  <path
     d="m 31,100.9 c 0,0.6 0.4,1.3 1,1.6 0.6,0.3 0.7,-0.1 0.4,-0.9 C 31.7,99.8 31,99.5 31,100.9 Z"
     id="path228"
     style="fill:#000000;stroke:none;stroke-width:0.1" />
  <path
     d="m 3,103 c -0.9,0.6 -1,1 -0.3,1 0.6,0 1.5,-0.5 1.8,-1 0.8,-1.2 0.4,-1.2 -1.5,0 z"
     id="path230"
     style="fill:#000000;stroke:none;stroke-width:0.1" />
  <path
     d="m 5,104.3 c -1.4,1.2 -2.4,3 -2.2,3.9 0.2,1.1 -0.3,1.8 -1.2,1.8 -1.8,0 -2.1,1.5 -0.6,2.5 0.6,0.3 1,0.1 1,-0.6 0,-1 0.3,-1 1.2,-0.1 0.8,0.8 0.8,1.5 -0.1,2.5 -0.9,1.2 -0.7,1.6 0.9,2 1.1,0.3 2.3,0.1 2.6,-0.4 0.3,-0.5 0.1,-0.9 -0.3,-0.9 -0.5,0 -0.9,-1 -1,-2.3 0,-1.2 0.1,-1.6 0.4,-1 0.7,1.8 2.3,1.6 2.3,-0.2 0,-0.8 -0.7,-1.5 -1.5,-1.5 -1.7,0 -2,-1.6 -0.4,-2.5 0.6,-0.4 0.8,-1.3 0.5,-2 -0.2,-0.7 0.1,-1.8 0.7,-2.4 2,-2 0.3,-1.1 -2.3,1.2 z m 1,1.7 c 0,0.5 -0.5,1 -1.1,1 -0.5,0 -0.7,-0.5 -0.4,-1 0.3,-0.6 0.8,-1 1.1,-1 0.2,0 0.4,0.4 0.4,1 z"
     id="path232"
     style="fill:#000000;stroke:none;stroke-width:0.1" />
  <path
     d="m 28.7,102.6 c -0.4,0.4 -0.7,1.4 -0.7,2.3 0,1.3 0.2,1.3 0.9,0.3 0.6,-1 1,-0.6 1.5,1.4 0.6,2.2 0.9,2.5 1.7,1.3 1,-1.7 1.2,-3.5 0.2,-2.5 -0.4,0.3 -1.2,-0.3 -1.8,-1.4 -0.6,-1.1 -1.4,-1.7 -1.8,-1.4 z"
     id="path234"
     style="fill:#000000;stroke:none;stroke-width:0.1" />
  <path
     d="m 146.5,103.4 c -4,1.7 -6.2,4.3 -4.7,5.8 0.7,0.7 1.7,0.3 3.3,-1.6 1.7,-2 3.2,-2.6 6.4,-2.6 10.4,0 11.7,8.8 1.3,9.1 -8.8,0.2 -15.1,5.9 -12.6,11.4 1.3,2.9 5.5,5.5 8.8,5.5 1.1,0 3.8,-0.9 6,-2 2.2,-1.1 4.1,-2 4.3,-2 0.3,0 0.7,0.9 1,2 0.3,1.1 1.3,2 2.2,2 1.4,0 1.6,-0.6 1.1,-3.1 -0.3,-1.7 -0.6,-7.4 -0.6,-12.5 V 106 l -3.2,-2 c -3.8,-2.3 -8.9,-2.5 -13.3,-0.6 z m 13.5,15.5 c 0,4.4 -4.9,9.1 -9.4,9.1 -3.4,0 -7.6,-2.7 -7.6,-4.9 0,-2.6 4,-5.5 8.6,-6.2 8.5,-1.1 8.4,-1.2 8.4,2 z"
     id="path236"
     style="fill:#aad400;stroke:none;stroke-width:0.1" />
  <path
     d="m 201.7,104.2 c 0.2,1.3 0.8,3.2 1.3,4.3 0.4,1.1 1.6,4.7 2.5,8 0.9,3.3 2.1,7 2.6,8.3 0.5,1.3 0.9,3.2 0.9,4.2 0,1.4 0.7,2 2.3,2 2,0 2.5,-0.9 4.2,-7.8 1,-4.2 2.5,-9.3 3.4,-11.2 l 1.4,-3.5 1.4,5 c 0.8,2.7 1.9,6.8 2.5,9 1.7,6.8 2.7,8.5 4.8,8.5 1.5,0 2,-0.7 2,-2.4 0,-1.4 0.4,-2.7 0.9,-3 0.5,-0.3 1.1,-1.8 1.4,-3.3 0.3,-1.6 1.3,-5.3 2.2,-8.3 3.2,-10.7 3.4,-12 1.9,-12 -0.8,0 -1.6,0.6 -1.8,1.2 -1.4,4.5 -3.6,12 -4.7,16 -0.7,2.7 -1.6,4.8 -2,4.8 -0.9,0 -2.9,-4.8 -2.9,-7 0,-1 -0.4,-2.9 -0.9,-4.2 -0.5,-1.3 -1.4,-4.2 -2,-6.6 -1.6,-6 -4.3,-5.7 -5.9,0.5 -0.7,2.7 -1.8,6.6 -2.4,8.8 -1.7,6.6 -3,9.7 -3.8,8.8 -0.4,-0.4 -2,-5.6 -3.6,-11.6 -2.2,-8.2 -3.2,-10.7 -4.5,-10.7 -1.3,0 -1.6,0.6 -1.2,2.2 z"
     id="path238"
     style="fill:#aad400;stroke:none;stroke-width:0.1" />
  <path
     d="m 250.4,103.5 c -4.7,2.1 -6.8,6 -6.8,13 -0.1,7.1 2,10.9 7.2,13 6,2.6 11.3,1.4 15.6,-3.4 3,-3.3 -0.5,-3.9 -3.7,-0.7 -3.8,3.8 -9,3.6 -12.8,-0.5 -1.6,-1.7 -2.9,-4.2 -2.9,-5.5 0,-2.4 0.1,-2.4 10.5,-2.4 H 268 v -3.8 c 0,-2.9 -0.7,-4.5 -2.7,-6.4 -5.4,-5 -9.1,-5.8 -14.9,-3.3 z m 11.3,3.7 c 1.3,1.2 2.3,3.2 2.3,4.5 0,2.2 -0.3,2.3 -8,2.3 -9.5,0 -11,-1.4 -6.4,-6.1 3.5,-3.6 8.6,-4 12.1,-0.7 z"
     id="path240"
     style="fill:#aad400;stroke:none;stroke-width:0.1" />
  <path
     d="m 328.5,103.8 c -5.2,3.2 -6,4.9 -6,12.7 0,8.2 1.3,10.6 7.4,13.1 4.5,1.9 6.4,1.8 10.8,-0.7 5.5,-3.1 6.2,-4.6 6.2,-12.4 0,-7.7 -0.7,-9.2 -5.9,-12.4 -4.3,-2.6 -8.5,-2.7 -12.5,-0.3 z m 10.6,2.2 c 2.6,1.5 4.9,6.2 4.9,10.5 0,10 -9.1,15.2 -15.3,8.7 -2.3,-2.4 -2.7,-3.7 -2.7,-8.9 0,-5 0.4,-6.5 2.5,-8.7 2.6,-2.8 7,-3.5 10.6,-1.6 z"
     id="path242"
     style="fill:#aad400;stroke:none;stroke-width:0.1" />
  <path
     d="m 395.9,104.9 c 0.6,1 0.7,2.1 0.4,2.5 -0.3,0.3 0.1,0.6 0.9,0.6 1.1,0 1.4,-0.7 1,-2.5 -0.2,-1.4 -1.1,-2.5 -1.9,-2.5 -1,0 -1.1,0.5 -0.4,1.9 z"
     id="path244"
     style="fill:#000000;stroke:none;stroke-width:0.1" />
  <path
     d="m 28.5,111.1 c -0.4,1.1 -0.3,2.5 0.2,3.2 0.5,0.7 0.8,3.8 0.7,7 -0.2,4.3 0.1,5.9 1.2,6.4 0.7,0.3 1.4,1.1 1.4,1.9 0,0.8 0.8,1.4 1.8,1.4 1,0 1.9,-0.7 1.9,-1.5 0,-0.9 -0.6,-1.4 -1.4,-1.1 -1.6,0.6 -1.8,-1 -0.2,-2 0.8,-0.5 0.6,-1 -0.5,-1.6 -0.9,-0.5 -1.6,-1.4 -1.6,-1.9 0,-0.6 0.6,-0.7 1.3,-0.3 0.9,0.6 0.9,0.4 -0.1,-0.8 -0.9,-1.1 -1,-2.7 -0.4,-5.6 0.9,-3.7 0.8,-3.9 -1.2,-3.5 -1.3,0.3 -1.7,0.1 -1,-0.4 0.9,-0.6 0.8,-1.1 -0.1,-2 -1.1,-1 -1.5,-0.9 -2,0.8 z"
     id="path246"
     style="fill:#000000;stroke:none;stroke-width:0.1" />
  <path
     d="m 375.7,109.7 c -0.9,0.2 -1.5,0.9 -1.2,1.4 0.4,0.5 -0.1,0.9 -0.9,0.9 -2.3,0 -2.8,1.7 -1.1,3.4 1.4,1.3 1.3,1.6 -0.6,3 -1.6,1.1 -1.9,2 -1.4,3.3 1.3,2.7 1.4,5.3 0.3,6 -0.6,0.3 -1.4,0 -1.8,-0.7 -1.2,-2 -4.2,5 -3.5,8.2 0.5,2.3 0.4,2.7 -0.9,2.2 -1.1,-0.4 -1.6,-0.1 -1.6,1.1 0,0.9 0.4,1.4 0.9,1.1 0.5,-0.4 0.7,0.4 0.3,1.6 -0.5,2.1 -0.5,2.1 -1.4,-0.2 -0.7,-1.9 -1.1,-2.1 -1.8,-1.1 -0.4,0.8 -0.6,2.1 -0.2,2.9 0.3,0.9 0.1,1.3 -0.5,0.9 -0.6,-0.4 -1.6,0 -2.3,0.8 -1,1.2 -1,1.8 0,3 0.7,0.8 1.8,1.5 2.4,1.4 0.7,0 0.6,-0.2 -0.1,-0.6 -0.7,-0.2 -1.3,-1.4 -1.3,-2.6 0.1,-2.2 0.1,-2.2 1.5,-0.3 0.8,1.1 1.5,1.5 1.5,0.8 0,-0.6 0.6,-0.9 1.3,-0.7 1.3,0.5 3.7,-3.8 3.7,-6.6 0,-1.6 2.6,-3.4 4.3,-3.1 0.4,0.1 0.8,-0.8 0.9,-2.1 0,-1.2 0.2,-2.8 0.2,-3.5 0.1,-0.7 0.6,-1.6 1.1,-2 1.5,-1 1.7,-3 0.5,-5.2 -0.6,-1.1 -0.7,-2 -0.2,-2 0.5,0 0.9,-0.6 1,-1.3 0.2,-2.6 0.8,-4.7 1.7,-5.4 0.4,-0.4 0.5,-0.2 0.1,0.4 -0.4,0.7 -0.2,1.3 0.4,1.3 0.8,0 1,-0.9 0.6,-2.5 -0.4,-1.7 -0.2,-2.4 0.6,-2.1 0.7,0.1 1,0.1 0.5,-0.1 -0.4,-0.3 -0.5,-0.9 -0.1,-1.4 0.5,-0.9 0.1,-1 -2.9,-0.2 z M 369,132 c 0,0.5 -0.2,1 -0.4,1 -0.3,0 -0.8,-0.5 -1.1,-1 -0.3,-0.6 -0.1,-1 0.4,-1 0.6,0 1.1,0.4 1.1,1 z"
     id="path248"
     style="fill:#000000;stroke:none;stroke-width:0.1" />
  <path
     d="m 395.9,111.3 c 0.6,0.8 0.8,1.7 0.4,2 -0.3,0.4 -0.1,0.7 0.5,0.7 0.7,0 1.2,-0.9 1.2,-2 0,-1.2 -0.7,-2 -1.6,-2 -1.3,0 -1.4,0.3 -0.5,1.3 z"
     id="path250"
     style="fill:#000000;stroke:none;stroke-width:0.1" />
  <path
     d="m 395.6,116.2 c 0.3,0.5 1,0.6 1.5,0.3 1.3,-0.9 1.1,-1.2 -0.6,-1.2 -0.8,0 -1.2,0.4 -0.9,0.9 z"
     id="path252"
     style="fill:#000000;stroke:none;stroke-width:0.1" />
  <path
     d="m 25,117.1 c 0,0.5 0.5,0.7 1,0.4 0.6,-0.3 1,-0.8 1,-1.1 0,-0.2 -0.4,-0.4 -1,-0.4 -0.5,0 -1,0.5 -1,1.1 z"
     id="path254"
     style="fill:#000000;stroke:none;stroke-width:0.1" />
  <path
     d="m 1.4,118.1 c -0.2,0.4 0,1 0.6,1.4 0.5,0.3 1,0.3 1,-0.2 0,-0.4 0.5,-0.1 1,0.7 0.9,1.3 1.1,1.3 2,0 0.8,-1.3 1,-1.2 1.1,0.5 v 2 l 0.9,-2 c 0.5,-1.1 0.9,-2.2 0.9,-2.5 0.1,-0.8 -7,-0.7 -7.5,0.1 z"
     id="path256"
     style="fill:#000000;stroke:none;stroke-width:0.1" />
  <path
     d="m 395.7,119.7 c -1,0.9 -0.9,2.3 0.2,2.3 0.5,0 1.1,-0.7 1.5,-1.5 0.5,-1.5 -0.5,-2 -1.7,-0.8 z"
     id="path258"
     style="fill:#000000;stroke:none;stroke-width:0.1" />
  <path
     d="m 3.6,123.6 c -0.3,0.8 0,1.1 1,0.7 1.7,-0.6 1.9,1.3 0.2,2.1 -0.7,0.4 0.2,0.4 2.1,0.1 3.4,-0.5 3.4,-0.5 1.4,1.3 -1.5,1.2 -2,2.5 -1.6,4.5 0.5,2.7 3.3,6 3.3,3.8 0,-0.6 0.7,-1.1 1.5,-1.1 1.7,0 2.1,-4.5 0.4,-5.5 -0.6,-0.4 -0.8,-1.3 -0.5,-2.1 0.3,-0.9 -0.9,-2.1 -3.4,-3.3 -3.1,-1.5 -4,-1.6 -4.4,-0.5 z m 6.8,6.9 c -0.6,1.6 -2.4,2.1 -2.4,0.7 0,-1.1 1.1,-2.2 2.1,-2.2 0.5,0 0.6,0.7 0.3,1.5 z M 12,133 c 0,0.5 -0.5,1 -1.1,1 -0.5,0 -0.7,-0.5 -0.4,-1 0.3,-0.6 0.8,-1 1.1,-1 0.2,0 0.4,0.4 0.4,1 z"
     id="path260"
     style="fill:#000000;stroke:none;stroke-width:0.1" />
  <path
     d="m 391.5,124.4 c -1.2,1.2 -0.8,4.6 0.7,6.1 0.6,0.6 0.7,0.3 0.2,-0.9 -0.5,-1.3 -0.4,-1.7 0.3,-1.3 0.6,0.4 1.3,-0.4 1.5,-1.8 0.5,-2.6 -1.1,-3.9 -2.7,-2.1 z"
     id="path262"
     style="fill:#000000;stroke:none;stroke-width:0.1" />
  <path
     d="m 24,131 c 0,1.1 0.2,2 0.4,2 0.2,0 0.6,-0.9 0.9,-2 0.3,-1.1 0.1,-2 -0.4,-2 -0.5,0 -0.9,0.9 -0.9,2 z"
     id="path264"
     style="fill:#000000;stroke:none;stroke-width:0.1" />
  <path
     d="m 386.9,133.2 c -0.9,1.7 -0.8,1.8 0.9,0.9 1.5,-0.8 2.1,-0.8 2.4,0.1 0.3,0.8 0.7,0.6 1,-0.4 1,-2.5 -3,-3.1 -4.3,-0.6 z"
     id="path266"
     style="fill:#000000;stroke:none;stroke-width:0.1" />
  <path
     d="m 32,133.1 c 0,0.4 0.6,0.9 1.4,1.2 0.9,0.4 1.2,1.4 0.9,2.6 -0.4,1.5 -0.1,2.1 1.1,2.1 1,0 1.3,0.5 0.9,1.6 -0.5,1.3 -0.2,1.5 1.5,0.9 2.3,-0.7 3.1,0.9 1,1.9 -0.7,0.3 -0.2,0.3 1.2,-0.1 2.2,-0.5 2.3,-0.4 1.1,1 -1.1,1.4 -1.1,1.9 0.2,3.2 1.2,1.1 1.7,1.2 2.1,0.2 0.3,-0.6 0.4,-0.3 0.1,0.9 -0.3,1.3 0.2,2.7 1.4,3.8 1.8,1.7 2,1.7 3,-0.1 0.6,-1 1,-1.4 1.1,-0.8 0,0.5 -0.4,1.7 -1,2.5 -1.2,1.9 1,3.3 2.9,1.7 1.1,-1 1.3,-0.8 0.7,1 -0.4,1.3 -0.2,2.4 0.5,2.9 0.8,0.5 0.9,0.3 0.4,-0.6 -0.5,-0.8 -0.3,-1.1 0.6,-0.8 0.8,0.3 1.3,1.1 1.2,1.7 -0.2,0.6 0.1,1.1 0.6,1.1 0.5,0 1.3,0.9 1.6,2.1 0.6,1.7 1.3,2 3.6,1.5 2.6,-0.5 2.9,-0.3 3,2.2 0.1,2 0.3,2.2 0.6,0.8 0.5,-1.8 0.6,-1.8 1.9,0.5 l 1.3,2.4 0.1,-3.1 c 0,-2.7 -0.7,-3.6 -4.8,-6.3 -2.7,-1.7 -5.4,-3.1 -6.1,-3.1 -0.7,0 -0.9,-0.5 -0.6,-1 0.3,-0.6 -0.1,-1 -0.9,-1 -0.9,0 -1.5,-0.3 -1.4,-0.8 0.3,-0.9 -8.1,-9.2 -9.3,-9.2 -0.5,0 -0.9,-0.9 -0.9,-2 0,-1.1 -0.4,-2 -1,-2 -0.5,0 -1,-0.7 -1,-1.6 0,-0.8 -0.5,-1.2 -1.1,-0.9 -0.6,0.4 -0.9,0 -0.7,-1.1 0.2,-1.3 -0.3,-1.9 -1.5,-1.8 -1.4,0.2 -1.5,-0.1 -0.6,-1.2 0.6,-0.7 0.8,-1.8 0.4,-2.3 -0.6,-1.1 -5.5,-1.1 -5.5,0 z"
     id="path268"
     style="fill:#000000;stroke:none;stroke-width:0.1" />
  <path
     d="m 10.4,138.1 c -0.2,0.4 0.3,0.9 1.1,1.3 0.8,0.3 1.5,0 1.5,-0.6 0,-0.6 0.3,-0.8 0.6,-0.5 0.4,0.4 0.1,1.3 -0.5,2.1 -1,1.2 -0.9,2 0.4,4 1,1.4 2.3,2.6 2.9,2.6 1.7,0 1.3,-3.9 -0.4,-5 -0.7,-0.4 -1.1,-1.7 -0.7,-2.9 0.4,-1.7 0.1,-2 -2,-1.9 -1.3,0.2 -2.6,0.6 -2.9,0.9 z"
     id="path270"
     style="fill:#000000;stroke:none;stroke-width:0.1" />
  <path
     d="m 25.3,139 c 0.1,1.1 0.5,2 1,2 0.5,0 0.8,1 0.7,2.2 -0.4,4.4 -0.1,5.1 1.3,3.9 0.8,-0.6 1.7,-0.8 2,-0.4 0.4,0.3 0.7,0.1 0.7,-0.6 0,-0.8 -0.7,-1.1 -1.5,-0.7 -0.8,0.3 -1.5,0.1 -1.5,-0.4 0,-0.6 0.5,-1 1,-1 0.7,0 0.6,-0.8 -0.2,-2.3 -0.7,-1.2 -1.1,-2.8 -1,-3.5 0.2,-0.6 -0.4,-1.2 -1.2,-1.2 -0.9,0 -1.4,0.8 -1.3,2 z"
     id="path272"
     style="fill:#000000;stroke:none;stroke-width:0.1" />
  <path
     d="m 16,139.9 c 0,0.5 0.5,1.3 1,1.6 0.6,0.3 1,0.2 1,-0.4 0,-0.5 -0.4,-1.3 -1,-1.6 -0.5,-0.3 -1,-0.2 -1,0.4 z"
     id="path274"
     style="fill:#000000;stroke:none;stroke-width:0.1" />
  <path
     d="m 383.6,140.5 c 0.4,0.8 0.8,1.5 1,1.5 0.2,0 0.4,-0.7 0.4,-1.5 0,-0.8 -0.4,-1.5 -1,-1.5 -0.5,0 -0.7,0.7 -0.4,1.5 z"
     id="path276"
     style="fill:#000000;stroke:none;stroke-width:0.1" />
  <path
     d="m 380.6,142.5 c 0.4,0.8 0.8,1.5 1,1.5 0.2,0 0.4,-0.7 0.4,-1.5 0,-0.8 -0.4,-1.5 -1,-1.5 -0.5,0 -0.7,0.7 -0.4,1.5 z"
     id="path278"
     style="fill:#000000;stroke:none;stroke-width:0.1" />
  <path
     d="m 19,143 c -1.2,3.3 -0.6,6.8 1.6,9.3 2.5,2.9 4.8,2.9 3.7,0 -0.4,-1.1 -0.3,-1.4 0.6,-0.9 0.7,0.5 1,1.5 0.6,2.3 -0.8,2.3 0.4,5.3 1.9,4.7 0.7,-0.3 1.8,0.7 2.6,2.1 1,1.8 1.6,2.2 2.2,1.3 1.1,-1.8 1,-4.8 -0.2,-4.8 -0.5,0 -0.7,0.7 -0.4,1.5 0.4,0.8 0.2,1.5 -0.3,1.5 -1.3,0 -3.5,-3.9 -2.8,-5 0.4,-0.6 0.1,-1 -0.5,-1 -0.7,0 -1,-0.6 -0.8,-1.2 0.3,-0.7 0,-1.8 -0.6,-2.4 -0.8,-0.9 -1.5,-0.8 -2.9,0.4 -0.9,0.8 -2,1.2 -2.5,0.7 -0.4,-0.4 -0.1,-1 0.6,-1.2 1.1,-0.4 1,-0.8 -0.1,-2.2 -0.8,-0.9 -1.7,-2.5 -2,-3.6 -0.2,-1.1 -0.6,-1.8 -0.7,-1.5 z"
     id="path280"
     style="fill:#000000;stroke:none;stroke-width:0.1" />
  <path
     d="m 376,143.4 c 0,0.5 3.7,4.6 4.2,4.6 1.5,0 0.1,-3 -1.9,-3.9 -1.2,-0.6 -2.3,-0.9 -2.3,-0.7 z"
     id="path282"
     style="fill:#000000;stroke:none;stroke-width:0.1" />
  <path
     d="m 373,146 c -1,0.6 -1.1,1 -0.2,1 2.3,0 1.2,1.8 -2.3,3.4 -1.9,0.9 -3.5,2.1 -3.5,2.7 0,0.6 0.8,0.5 2.1,-0.2 1.5,-0.8 1.9,-0.8 1.5,0 -0.4,0.6 -0.2,1.1 0.3,1.1 0.6,0 1.1,-0.6 1.1,-1.4 0,-0.7 0.7,-1.9 1.5,-2.6 0.9,-0.7 1.4,-1.9 1.1,-2.6 -0.3,-0.7 0,-1.5 0.7,-1.8 0.7,-0.2 0.8,-0.5 0.2,-0.5 -0.5,0 -1.7,0.4 -2.5,0.9 z"
     id="path284"
     style="fill:#000000;stroke:none;stroke-width:0.1" />
  <path
     d="m 30,150 c 0.6,1 1.7,1.7 2.4,1.4 0.8,-0.3 1.7,-0.1 2.1,0.5 0.3,0.6 0.1,1.1 -0.5,1.1 -0.6,0 -0.8,0.5 -0.4,1.1 0.5,0.8 1,0.7 1.6,-0.5 1.2,-2.1 1.1,-3.1 -0.4,-3.1 -0.7,-0.1 -1.2,-0.7 -1,-1.5 0.1,-1 -0.3,-0.8 -1.3,0.4 -1.3,1.7 -1.5,1.8 -1.5,0.3 0,-0.9 -0.5,-1.7 -1,-1.7 -0.7,0 -0.7,0.6 0,2 z"
     id="path286"
     style="fill:#000000;stroke:none;stroke-width:0.1" />
  <path
     d="m 355.2,149.7 c -0.5,1 -0.7,2.4 -0.5,3 0.3,0.7 -0.1,1.3 -0.7,1.3 -0.8,0 -1,-1 -0.7,-2.5 0.3,-1.7 0,-2.4 -0.7,-2.2 -0.6,0.2 -1,1.2 -0.8,2.1 0.3,1.4 -0.1,1.6 -1.7,1.1 -1.4,-0.4 -2.3,0 -3.1,1.4 -0.9,1.7 -0.8,2 0.5,1.5 0.8,-0.4 1.5,-0.1 1.5,0.5 0,1.1 -1.3,1.5 -3.7,1.2 -1.8,-0.3 -2.9,4.9 -1.2,6 0.7,0.4 1,1.1 0.6,1.5 -0.4,0.4 -1.7,-0.1 -2.9,-1.2 l -2.3,-1.9 1.8,2.1 c 1,1.2 1.5,2.8 1.1,3.8 -0.3,0.9 -0.2,1.6 0.4,1.6 0.6,0 1.2,-0.6 1.4,-1.2 0.3,-0.7 1.3,-1.3 2.3,-1.3 1,0 2,-0.6 2.2,-1.3 0.3,-0.7 -0.1,-1 -1,-0.6 -1.1,0.4 -1.4,0 -1.2,-1.3 0.2,-1 0.4,-2.6 0.4,-3.6 0.1,-1.3 0.6,-1.7 2,-1.2 2.2,0.7 4,-1.3 2.1,-2.5 -1.6,-1 0.3,-2.2 2.2,-1.5 0.7,0.3 2.2,-0.2 3.3,-1.1 1.1,-0.8 1.4,-1.3 0.8,-0.9 -0.7,0.3 -1.3,0.2 -1.3,-0.4 0,-0.5 0.7,-1.1 1.7,-1.3 1.5,-0.3 1.5,-0.4 0,-1.6 -1.3,-1.1 -1.7,-1 -2.5,0.5 z m -10,10.5 c -0.7,0.7 -1.2,0.8 -1.2,0.2 0,-1.4 1.2,-2.6 1.9,-1.9 0.2,0.3 -0.1,1.1 -0.7,1.7 z"
     id="path288"
     style="fill:#000000;stroke:none;stroke-width:0.1" />
  <path
     d="m 361.5,153 c -0.3,0.5 -0.1,1 0.4,1 0.6,0 1.1,-0.5 1.1,-1 0,-0.6 -0.2,-1 -0.4,-1 -0.3,0 -0.8,0.4 -1.1,1 z"
     id="path290"
     style="fill:#000000;stroke:none;stroke-width:0.1" />
  <path
     d="m 363.6,154.7 c -0.6,1.4 -0.5,1.5 0.5,0.6 0.7,-0.7 1,-1.5 0.7,-1.8 -0.3,-0.3 -0.9,0.2 -1.2,1.2 z"
     id="path292"
     style="fill:#000000;stroke:none;stroke-width:0.1" />
  <path
     d="m 36,155.6 c 0,0.9 0.4,1.3 0.9,1 0.5,-0.3 1.2,0.2 1.5,1.1 0.6,1.5 0.8,1.5 1.6,0.3 0.6,-1 0.8,-0.3 0.4,2 -0.5,3.1 -0.3,3.6 1.5,3.6 1.3,0 2.1,-0.7 2.1,-1.8 0,-1 0,-2 0,-2.3 0,-0.3 -0.2,-0.5 -0.6,-0.5 -0.3,0.1 -1.3,-0.9 -2.3,-2.1 C 39,154.3 36,153.5 36,155.6 Z"
     id="path294"
     style="fill:#000000;stroke:none;stroke-width:0.1" />
  <path
     d="m 358.5,155 c -0.3,0.5 -0.1,1 0.4,1 0.6,0 1.1,-0.5 1.1,-1 0,-0.6 -0.2,-1 -0.4,-1 -0.3,0 -0.8,0.4 -1.1,1 z"
     id="path296"
     style="fill:#000000;stroke:none;stroke-width:0.1" />
  <path
     d="m 365,157 c 0,0.5 0.5,1 1.1,1 0.5,0 0.7,-0.5 0.4,-1 -0.3,-0.6 -0.8,-1 -1.1,-1 -0.2,0 -0.4,0.4 -0.4,1 z"
     id="path298"
     style="fill:#000000;stroke:none;stroke-width:0.1" />
  <path
     d="m 34.7,158.7 c -0.9,0.9 -0.9,6.3 0.1,6.3 1,-0.1 4.2,-2.6 4.2,-3.4 0,-0.4 -0.8,-0.6 -1.7,-0.4 -1.2,0.2 -1.8,-0.3 -1.7,-1.5 0.2,-1.9 0.1,-2 -0.9,-1 z"
     id="path300"
     style="fill:#000000;stroke:none;stroke-width:0.1" />
  <path
     d="m 349.3,160.2 c -1.4,0.7 -1.3,0.7 0.5,0.4 2,-0.4 2.3,-0.1 1.9,1.5 -0.3,1.1 0,1.9 0.8,1.9 1.2,0 2.5,-2.1 2.5,-3.9 0,-0.9 -3.4,-0.9 -5.7,0.1 z"
     id="path302"
     style="fill:#000000;stroke:none;stroke-width:0.1" />
  <path
     d="m 43.3,164.7 c -1.3,1.4 -2.3,2.1 -2.3,1.6 0,-0.6 -0.8,-1.4 -1.7,-1.8 -1.4,-0.5 -1.5,-0.3 -0.6,0.6 0.6,0.6 0.9,1.8 0.6,2.7 -0.4,1 -0.2,1.3 0.5,0.8 0.7,-0.4 1.5,-0.1 1.8,0.8 0.3,0.8 1.2,1.7 2,2 0.9,0.3 1.2,0.1 0.9,-0.4 -0.3,-0.6 0.1,-1 0.9,-1 0.9,0 1.6,-0.4 1.6,-1 0,-0.5 -0.6,-0.7 -1.4,-0.4 -0.8,0.3 -1.7,0 -2.1,-0.6 -0.4,-0.7 0.2,-1.4 1.4,-1.7 1.2,-0.3 2.1,-0.9 2.1,-1.4 0,-0.5 0.4,-0.9 0.8,-0.9 0.5,0 0.9,1.6 1,3.5 0.1,2.5 -0.3,3.5 -1.3,3.5 -2.2,0 -1.8,1.7 0.5,2.3 1.4,0.4 2,0 2,-1.1 0,-1.4 0.2,-1.5 1,-0.2 0.5,0.9 0.5,1.9 -0.2,2.7 -0.8,1 -0.5,1.3 1.1,1.3 1.1,0 2.1,0.4 2.1,1 0,0.5 0.5,1 1.1,1 0.5,0 0.7,-0.5 0.3,-1.2 -0.4,-0.7 -0.3,-0.8 0.5,-0.4 0.6,0.4 0.9,1.1 0.6,1.6 -0.3,0.5 0,1.2 0.6,1.5 0.6,0.4 1.3,-0.2 1.6,-1.4 0.3,-1.1 0.9,-1.8 1.4,-1.5 0.5,0.3 0.9,-0.2 0.9,-1 0,-0.9 -0.6,-1.5 -1.2,-1.4 -0.7,0.2 -1.4,-0.8 -1.6,-2.1 -0.3,-1.6 0,-2.2 1,-1.8 0.7,0.2 1.2,1 1,1.6 -0.1,0.7 0.2,0.9 0.8,0.6 0.8,-0.5 0.6,-1.3 -0.6,-2.6 -1.7,-1.9 -1.8,-1.9 -2.7,-0.2 -0.6,1 -1.1,2 -1.3,2.1 -0.1,0.2 -1.6,-0.4 -3.3,-1.4 -1.9,-1.1 -3.1,-2.6 -3,-3.9 0,-2 0,-2 0.9,0 0.5,1.1 0.9,1.5 1,1 0,-0.6 0.6,-0.2 1.3,0.7 0.9,1.1 1.8,1.4 2.8,0.7 0.8,-0.5 0.9,-0.9 0.3,-0.9 -0.5,0 -1.9,-0.8 -3,-1.9 -2.3,-2.1 -5.9,-4.1 -7.1,-4 -0.4,0 -1.8,1.2 -3,2.6 z M 57,174 c 0,0.5 -0.9,1 -2,1 -1.1,0 -2,-0.5 -2,-1 0,-0.6 0.9,-1 2,-1 1.1,0 2,0.4 2,1 z"
     id="path304"
     style="fill:#000000;stroke:none;stroke-width:0.1" />
  <path
     d="m 336,165 c -1.3,0.9 -1.3,1 0,1.1 1,0 0.8,0.3 -0.5,0.9 -1.1,0.5 -1.5,0.9 -1,1 0.6,0.1 1.8,0.3 2.8,0.5 0.9,0.2 1.5,0 1.2,-0.5 -0.3,-0.5 0,-1 0.7,-1.2 0.6,-0.2 0.8,-1 0.4,-1.6 -0.9,-1.4 -1.6,-1.5 -3.6,-0.2 z"
     id="path306"
     style="fill:#000000;stroke:none;stroke-width:0.1" />
  <path
     d="m 331,166.5 c 0,2.2 0.4,3 1.3,2.7 1.2,-0.4 0.8,0.8 -0.7,2.4 -0.9,0.9 -1.7,1 -2.1,0.4 -0.7,-1.1 -2.9,0.6 -3.7,3 -0.3,1 -0.6,0.8 -1,-0.8 -0.4,-1.2 -0.2,-2 0.3,-1.6 0.5,0.3 0.9,0.1 0.9,-0.4 0,-1.9 -2.7,-2 -4.1,-0.1 -0.7,1 -2,1.9 -2.9,1.9 -0.8,0 -2.4,0.7 -3.4,1.5 -1.4,1 -2.3,1.2 -3.2,0.4 -0.9,-0.7 -1.8,-0.5 -3.3,1 -1.2,1.2 -2.7,2.1 -3.3,2.1 -0.7,0.1 0.4,0.9 2.4,2 2.1,1 4.4,1.7 5,1.6 3,-0.6 4.7,-1.9 4.1,-2.9 -0.4,-0.6 0,-0.8 0.9,-0.4 0.9,0.3 2.4,0 3.4,-0.8 2,-1.3 2.5,-1.5 4.7,-1.5 0.7,0 2.4,-1.1 3.9,-2.5 1.5,-1.4 3.7,-2.7 5,-2.9 1.3,-0.3 2.5,-0.5 2.8,-0.6 0.3,0 -0.7,-0.8 -2.2,-1.6 -1.6,-0.8 -2.8,-2.1 -2.8,-2.9 0,-0.8 -0.4,-1.5 -1,-1.5 -0.5,0 -1,0.7 -1,1.5 z m -10,9.5 c 0,0.5 -0.2,1 -0.4,1 -0.3,0 -0.8,-0.5 -1.1,-1 -0.3,-0.6 -0.1,-1 0.4,-1 0.6,0 1.1,0.4 1.1,1 z m -10,2 c 0,0.5 -0.5,1 -1.1,1 -0.5,0 -0.7,-0.5 -0.4,-1 0.3,-0.6 0.8,-1 1.1,-1 0.2,0 0.4,0.4 0.4,1 z m 3.4,1.6 c 0.8,2.2 0.8,2.4 -0.7,1.8 -0.8,-0.3 -1.4,-1.1 -1.4,-1.9 0,-2 1.3,-1.9 2.1,0.1 z"
     id="path308"
     style="fill:#000000;stroke:none;stroke-width:0.1" />
  <path
     d="m 68,166.5 c 0,0.2 0.5,1.6 1.2,3 1.2,2.6 3.2,3.6 2.2,1.1 -0.3,-0.8 -0.1,-1.7 0.5,-2.1 0.7,-0.3 0.8,0 0.5,0.9 -0.3,0.9 -0.1,1.6 0.5,1.6 0.6,0 1.1,0.7 1.1,1.6 0,1.1 0.6,1.4 2,0.9 1.4,-0.4 2,-0.2 2,0.9 0,1 0.6,1.3 1.6,0.9 0.9,-0.3 1.9,-0.1 2.3,0.4 0.3,0.6 1.7,1.4 3,1.8 1.6,0.5 2.1,0.4 1.7,-0.4 -0.4,-0.6 -0.2,-1.1 0.5,-1.1 0.6,0 0.9,0.8 0.6,1.9 -0.3,1.5 0.2,2 2.4,2.5 1.7,0.3 2.9,1.2 2.9,2.1 0,1.9 -3.4,1.9 -5.4,0 -0.8,-0.8 -1.7,-1.1 -2,-0.6 -0.8,1.3 -5.6,-1.1 -5.6,-2.7 0,-0.7 -0.4,-1.1 -0.9,-0.8 -0.5,0.4 -1.1,0.1 -1.3,-0.6 -0.5,-1.4 -4.8,-2.1 -4.8,-0.7 0,0.5 -0.5,0.7 -1.2,0.3 -0.7,-0.4 -0.8,-0.3 -0.4,0.5 0.4,0.6 1.8,0.9 3.2,0.7 2.3,-0.5 2.5,-0.2 2.2,3.5 -0.1,2.1 -0.6,3.9 -1,3.9 -0.4,0 -0.8,-0.5 -0.8,-1.2 0,-0.9 -0.3,-0.9 -1.2,0 -1.5,1.5 -2.8,1.5 -2.8,0.1 0,-0.5 0.5,-0.7 1,-0.4 1.5,0.9 1.2,-1.1 -0.4,-2.4 -1.1,-0.9 -1.5,-0.9 -1.9,0.1 -0.3,0.7 -0.6,-0.1 -0.6,-1.8 -0.1,-1.6 0.4,-3.5 1.1,-4.2 0.9,-0.9 0.9,-1.2 0.1,-1.2 -0.7,0 -1.4,0.9 -1.8,1.9 -0.6,1.9 -1.5,2 -4.7,0.7 -2,-0.9 -3.8,0 -3.8,1.9 0,1.1 0.6,1.2 2.3,0.7 3.3,-1.2 6,-0.3 5.4,1.8 -0.2,1 -0.2,2.2 0.2,2.6 0.6,0.9 8.1,4.6 9.1,4.6 0.3,0 1.2,0.6 2.2,1.4 1.1,1.1 1.8,1.2 2.3,0.4 0.5,-0.8 1.1,-0.6 1.9,0.6 1.2,1.5 1.3,1.4 1,-0.7 -0.1,-1.3 -0.3,-2.8 -0.3,-3.3 -0.1,-0.5 -1,-0.1 -2.1,0.9 -2.7,2.5 -3.7,1.2 -1.1,-1.4 2.4,-2.4 2.9,-4 0.7,-2.2 -0.8,0.7 -1.6,0.8 -1.8,0.4 -0.3,-0.4 -0.3,-0.2 -0.2,0.4 0.2,0.7 -0.1,1.3 -0.6,1.3 -0.6,0 -1,-1.7 -0.9,-3.8 0,-2 0.3,-3.1 0.6,-2.5 0.2,0.7 1.3,1.3 2.2,1.3 1,0 2.1,0.3 2.5,0.7 0.4,0.4 1.5,0.8 2.4,0.8 0.9,0 1.6,0.6 1.4,1.3 -0.2,1 0.5,1.2 2.8,0.7 1.8,-0.4 3.6,-0.2 4.4,0.4 0.9,0.8 1.3,0.6 1.3,-0.7 0,-0.9 -0.4,-2.3 -1,-3 -0.6,-0.8 -0.6,-1.2 0.2,-1.2 0.6,0 1.4,0.7 1.7,1.5 0.6,1.4 0.8,1.3 2,-0.2 1.1,-1.5 1.5,-1.5 2.2,-0.5 0.5,0.8 1.2,1.3 1.6,1.3 0.3,-0.1 0.8,0 1.1,0 0.3,0.1 1,0.3 1.5,0.4 0.6,0.1 1.5,0.3 2,0.4 0.6,0 1,0.6 1,1.2 0,0.6 -0.6,0.9 -1.3,0.6 -1.4,-0.5 -5.1,3.9 -3.9,4.7 0.5,0.3 1.5,-0.4 2.2,-1.5 1.9,-2.5 4,-2.5 3.3,0.1 -0.4,1.5 0,2 1.3,2 2.4,0 5.1,-1.7 4.1,-2.6 -0.3,-0.4 -1.3,-0.1 -2.2,0.6 -2.3,1.9 -3,0.4 -1.1,-2.4 1.1,-1.7 2.2,-2.3 3.4,-2 1.4,0.5 1.4,0.4 0.2,-0.5 -1.1,-0.7 -1.9,-0.6 -3.2,0.6 -1.7,1.5 -1.8,1.5 -1.8,0 0,-1 0.5,-1.7 1.2,-1.7 2.4,0 -0.2,-1.2 -3.1,-1.5 -1.7,-0.1 -3.6,-0.6 -4.3,-1.2 -1.3,-1 -11,-3.9 -11.6,-3.5 -0.1,0.2 -1,-0.5 -1.9,-1.4 -0.9,-0.9 -2.6,-1.4 -3.9,-1.1 -1.3,0.2 -2.2,-0.1 -2.1,-0.7 0.1,-0.6 -0.8,-1 -2,-1 -1.3,0.1 -2.3,-0.4 -2.3,-1.2 0,-1.7 -1.2,-1.8 -2.8,-0.2 -0.9,0.9 -1.2,0.7 -1.2,-1 0,-1.5 -0.9,-2.6 -2.6,-3.2 -2.7,-1.1 -4.4,-1.3 -4.4,-0.5 z M 94,179 c 0,0.5 -0.4,1 -1,1 -0.5,0 -1,-0.5 -1,-1 0,-0.6 0.5,-1 1,-1 0.6,0 1,0.4 1,1 z"
     id="path310"
     style="fill:#000000;stroke:none;stroke-width:0.1" />
  <path
     d="m 63.1,172.9 c -1.5,2.7 -1.4,3.6 0.3,2.2 1.1,-1 1.7,-0.8 2.5,0.6 0.8,1.5 1,1.3 0.8,-1.1 -0.3,-3.6 -2.2,-4.5 -3.6,-1.7 z"
     id="path312"
     style="fill:#000000;stroke:none;stroke-width:0.1" />
  <path
     d="m 302.5,181 c -0.3,0.5 -1.2,0.7 -2,0.3 -0.8,-0.3 -1.5,0 -1.5,0.7 0,0.6 0.5,0.8 1.1,0.4 0.7,-0.4 0.9,0 0.5,1.2 -0.3,1.1 -0.1,2.6 0.5,3.4 0.9,1.3 1,1.3 0.6,-0.2 -0.3,-0.9 0.2,-2.2 1.1,-3 1,-0.8 1.3,-0.9 0.9,-0.1 -0.5,0.8 0.1,1.1 1.8,0.9 2.9,-0.3 4.7,-1.6 2.2,-1.6 -0.9,0 -1.7,-0.4 -1.7,-0.9 0,-1.3 -2.8,-2.2 -3.5,-1.1 z"
     id="path314"
     style="fill:#000000;stroke:none;stroke-width:0.1" />
  <path
     d="m 63.5,182 c -0.3,0.5 0.1,1 0.9,1 0.9,0 1.6,-0.5 1.6,-1 0,-0.6 -0.4,-1 -0.9,-1 -0.6,0 -1.3,0.4 -1.6,1 z"
     id="path316"
     style="fill:#000000;stroke:none;stroke-width:0.1" />
  <path
     d="m 290.1,181.9 c 0,0.7 -0.7,1.1 -1.6,0.8 -0.8,-0.4 -1.7,-0.1 -2.1,0.6 -0.4,0.7 -0.4,0.9 0.1,0.5 0.4,-0.4 1.4,-0.3 2.2,0.4 1.7,1.4 2.6,0.5 2,-1.9 -0.3,-1 -0.5,-1.2 -0.6,-0.4 z"
     id="path318"
     style="fill:#000000;stroke:none;stroke-width:0.1" />
  <path
     d="m 295.3,182.9 c -0.6,1 -0.8,2.3 -0.3,3 0.5,0.9 1,0.4 1.4,-1.4 0.9,-3.4 0.4,-4 -1.1,-1.6 z"
     id="path320"
     style="fill:#000000;stroke:none;stroke-width:0.1" />
  <path
     d="m 292.3,183.6 c -0.3,0.8 -0.2,1.9 0.3,2.4 0.5,0.5 1,-0.1 1,-1.6 0.2,-2.7 -0.4,-3.1 -1.3,-0.8 z"
     id="path322"
     style="fill:#000000;stroke:none;stroke-width:0.1" />
  <path
     d="m 282.2,185 c 0,1.4 0.2,1.9 0.5,1.2 0.2,-0.6 0.2,-1.8 0,-2.5 -0.3,-0.6 -0.5,-0.1 -0.5,1.3 z"
     id="path324"
     style="fill:#000000;stroke:none;stroke-width:0.1" />
  <path
     d="m 98.7,184.7 c -0.8,1.3 0.2,4.3 1.4,4.3 1,0 1,-0.8 0,-3.4 -0.5,-1.2 -1,-1.6 -1.4,-0.9 z"
     id="path326"
     style="fill:#000000;stroke:none;stroke-width:0.1" />
  <path
     d="m 101.5,185 c 0.3,0.5 0.8,1 1.1,1 0.2,0 0.4,-0.5 0.4,-1 0,-0.6 -0.5,-1 -1.1,-1 -0.5,0 -0.7,0.4 -0.4,1 z"
     id="path328"
     style="fill:#000000;stroke:none;stroke-width:0.1" />
  <path
     d="m 115.7,185.5 c -1.2,0.8 -1.4,1.5 -0.8,2 0.6,0.3 1.8,0 2.6,-0.9 2,-1.9 0.5,-2.8 -1.8,-1.1 z"
     id="path330"
     style="fill:#000000;stroke:none;stroke-width:0.1" />
  <path
     d="m 298.2,186 c 0,1.4 0.2,1.9 0.5,1.2 0.2,-0.6 0.2,-1.8 0,-2.5 -0.3,-0.6 -0.5,-0.1 -0.5,1.3 z"
     id="path332"
     style="fill:#000000;stroke:none;stroke-width:0.1" />
  <path
     d="m 119.3,186.9 c -0.9,1.4 -0.7,1.7 0.8,1.8 1.1,0.1 1.7,-0.2 1.4,-0.7 -0.3,-0.6 0.1,-0.7 0.9,-0.4 0.9,0.3 1.6,0.2 1.6,-0.4 0,-1.8 -3.7,-2 -4.7,-0.3 z"
     id="path334"
     style="fill:#000000;stroke:none;stroke-width:0.1" />
  <path
     d="m 285,185.8 c 0,0.6 0.6,1.2 1.3,1.5 0.6,0.2 0.9,0.8 0.5,1.2 -0.4,0.4 -2.1,0.3 -3.7,-0.3 -2.6,-0.9 -3.2,-0.8 -4.1,0.8 -1.2,2.2 -0.6,2.6 4,2.5 4.5,-0.2 9,-1.5 9,-2.6 0,-1.3 -1.8,-1.1 -2.6,0.3 -0.6,0.9 -1,0.5 -1.4,-1.1 -0.5,-2.4 -3,-4.2 -3,-2.3 z"
     id="path336"
     style="fill:#000000;stroke:none;stroke-width:0.1" />
  <path
     d="m 126.7,187.6 c 0.4,1.1 0.8,1.2 1.3,0.4 0.5,-0.9 0.9,-0.9 1.4,-0.1 0.4,0.6 0.4,1.6 0,2.3 -0.5,0.8 -0.2,0.9 0.9,0.5 1,-0.3 1.7,-0.2 1.7,0.3 0,0.6 0.4,1 0.8,1 0.4,0 0.8,-0.9 0.8,-2 0,-1.2 -0.7,-2 -1.8,-2 -0.9,0 -2,-0.5 -2.3,-1 -1,-1.7 -3.5,-1.2 -2.8,0.6 z"
     id="path338"
     style="fill:#000000;stroke:none;stroke-width:0.1" />
  <path
     d="m 276.6,187.5 c 0.4,0.8 0.1,1.5 -0.5,1.5 -0.6,0 -1.1,0.5 -1.1,1.1 0,0.8 0.5,0.8 1.5,-0.1 1.7,-1.4 2,-4 0.5,-4 -0.5,0 -0.7,0.7 -0.4,1.5 z"
     id="path340"
     style="fill:#000000;stroke:none;stroke-width:0.1" />
  <path
     d="m 267.1,187.7 c 0.3,2.1 -0.2,3.3 -1.3,3 -0.8,-0.1 -1.3,0.7 -1.2,2 0,1.7 -0.3,2 -1.6,1.3 -1,-0.5 -2,-0.6 -2.4,-0.3 -0.3,0.3 -0.6,0.2 -0.6,-0.4 0,-0.6 0.8,-1.4 1.7,-1.7 1.5,-0.6 1.5,-0.8 0.3,-1.6 -0.8,-0.5 -1.9,-0.5 -2.6,0 -0.6,0.6 -1.5,0.6 -1.9,0.2 -0.5,-0.4 -0.5,0.1 -0.2,1 0.3,1 0.2,2 -0.3,2.3 -0.6,0.4 -1,-0.1 -1,-0.9 0,-1.4 -0.2,-1.4 -1.7,0.1 -1.6,1.6 -1.6,2 -0.3,3.4 1.4,1.5 1.6,1.5 3.2,-0.3 1.5,-1.7 1.9,-1.8 2.4,-0.5 0.7,2 6.4,1.2 8.2,-1.1 1.1,-1.5 1.4,-1.5 2.2,-0.2 0.8,1.2 1,1.1 1,-0.5 0,-1.5 0.2,-1.7 0.9,-0.6 0.6,0.9 1.1,1 1.5,0.2 0.4,-0.6 0.5,-1.1 0.2,-1.1 -0.3,0 -0.2,-1.1 0.3,-2.3 0.7,-1.7 0.6,-2.4 -0.4,-2.4 -0.7,0 -1.1,0.6 -0.8,1.4 0.3,0.7 0.1,1.3 -0.5,1.3 -0.6,0 -1.3,-0.6 -1.5,-1.3 -0.3,-0.6 -0.6,-0.2 -0.6,1 -0.1,1.3 -0.6,2.3 -1.1,2.3 -0.6,0 -0.8,-1.1 -0.4,-2.5 0.4,-1.5 0.2,-2.5 -0.5,-2.5 -0.6,0 -1,0.3 -1,0.7 z"
     id="path342"
     style="fill:#000000;stroke:none;stroke-width:0.1" />
  <path
     d="m 137.6,189.5 c -0.7,1.8 0,3.5 1.4,3.5 0.5,0 0.7,-1 0.5,-2.1 -0.6,-2.9 -1.1,-3.3 -1.9,-1.4 z"
     id="path344"
     style="fill:#000000;stroke:none;stroke-width:0.1" />
  <path
     d="m 141.6,191.3 c 0.3,1 0.9,1.5 1.2,1.2 0.3,-0.3 0,-1.1 -0.7,-1.8 -1,-0.9 -1.1,-0.8 -0.5,0.6 z"
     id="path346"
     style="fill:#000000;stroke:none;stroke-width:0.1" />
  <path
     d="m 145.1,192.4 c 0.7,1.4 1.6,2.6 2,2.6 1.2,0 -0.6,-4.3 -2,-4.8 -0.9,-0.3 -0.9,0.2 0,2.2 z"
     id="path348"
     style="fill:#000000;stroke:none;stroke-width:0.1" />
  <path
     d="m 237.8,191.1 c 1,1.4 0.9,1.7 -0.7,2.2 -1.1,0.3 -2.2,0 -2.5,-0.7 -0.2,-0.6 -0.5,-0.3 -0.5,0.6 -0.1,1 0.4,1.8 0.9,1.8 0.6,0 1,0.9 1,2.1 0,1.1 0.4,1.8 0.9,1.5 0.5,-0.4 1.2,0 1.4,0.6 0.4,1 0.6,1 0.6,0 0.1,-0.6 0.8,-1.2 1.6,-1.2 0.8,0 1.5,-0.6 1.5,-1.3 0,-0.8 0.3,-0.8 0.9,0.2 0.8,1.2 1.6,1.3 4.5,0.4 2,-0.6 3.6,-0.7 3.6,-0.2 0,0.5 0.5,0.9 1.2,0.9 0.6,0 0.4,-0.7 -0.5,-1.8 -2.3,-2.6 -2.1,-4.2 0.6,-4.3 2.1,0 2.1,-0.1 -0.3,-1 -1.7,-0.7 -2.6,-0.7 -2.8,0 -0.2,0.6 -1,1.1 -1.8,1.1 -0.8,0 -1.4,1 -1.4,2.5 0,1.4 -0.5,2.5 -1,2.5 -0.6,0 -0.8,-1.1 -0.6,-2.4 0.3,-1.8 0.1,-2.3 -0.9,-2 -0.7,0.3 -2.6,-0.3 -4.2,-1.3 -2.3,-1.4 -2.6,-1.5 -1.5,-0.2 z m 1.2,4.9 c 0,0.5 -0.4,1 -1,1 -0.5,0 -1,-0.5 -1,-1 0,-0.6 0.5,-1 1,-1 0.6,0 1,0.4 1,1 z"
     id="path350"
     style="fill:#000000;stroke:none;stroke-width:0.1" />
  <path
     d="m 86.3,192.4 c 0,1.8 1.3,2.1 2.2,0.6 0.4,-0.7 1.8,0.1 3.3,1.9 2,2.1 3.2,2.7 4.6,2.2 1.3,-0.5 1.6,-1 0.8,-1.5 -0.6,-0.3 -0.9,-1.2 -0.6,-2 0.3,-0.7 -0.1,-1.3 -0.8,-1.3 -0.7,-0.1 -3.1,-0.4 -5.4,-0.8 -3.3,-0.5 -4.1,-0.3 -4.1,0.9 z M 95,195 c 0,0.5 -0.4,1 -1,1 -0.5,0 -1,-0.5 -1,-1 0,-0.6 0.5,-1 1,-1 0.6,0 1,0.4 1,1 z"
     id="path352"
     style="fill:#000000;stroke:none;stroke-width:0.1" />
  <path
     d="m 148,191.9 c 0,0.5 0.9,1.3 2,1.6 1.1,0.3 2,1.4 2.1,2.3 0,1.1 0.3,1.2 0.6,0.4 0.6,-1.4 4.3,-1.6 4.3,-0.2 0,0.5 0.4,1 0.9,1 0.5,0 0.8,-1.1 0.7,-2.4 -0.1,-1.9 -0.4,-2.1 -1.7,-1.3 -1.3,0.8 -2.1,0.6 -3.4,-0.6 -1.8,-1.8 -5.5,-2.3 -5.5,-0.8 z"
     id="path354"
     style="fill:#000000;stroke:none;stroke-width:0.1" />
  <path
     d="m 231,191.5 c -0.1,0.5 -0.2,1.2 -0.2,1.6 0,0.3 -0.8,1 -1.9,1.7 -2,1.3 -2.6,0.3 -1,-1.4 0.6,-0.5 -1,-0.9 -4.5,-1 -2.9,0 -5.4,0.4 -5.4,0.9 0,0.4 -0.9,0.5 -2,0.2 -1.5,-0.5 -2,-0.2 -2,1.3 0,1.1 -0.8,2.3 -1.7,2.6 -1.5,0.6 -1.5,0.8 -0.3,1.6 2.3,1.5 2.8,1.2 3.3,-1.8 l 0.4,-2.7 0.2,2.7 c 0.1,2.6 0.4,2.8 4.1,2.8 3,0 3.8,-0.3 3.4,-1.4 -0.3,-0.8 0,-1.7 0.7,-2.2 0.8,-0.5 1,-0.3 0.4,0.6 -0.6,0.9 -0.2,1 1.6,0.5 2.1,-0.7 2.2,-0.6 1,0.8 -1.1,1.5 -0.9,1.6 1.8,1.4 1.7,-0.1 3.1,-0.8 3.1,-1.5 0,-0.6 0.8,-1.2 1.8,-1.2 1.6,-0.1 1.6,-0.2 0.1,-1.3 -0.9,-0.7 -1.9,-2.1 -2.2,-3.2 -0.2,-1.1 -0.6,-1.6 -0.7,-1 z m -9.6,6.3 c -0.5,0.8 -4.4,-1 -4.4,-2 0,-0.5 0.7,-0.8 1.5,-0.4 1,0.3 1.5,-0.1 1.6,-1.2 0.1,-1.1 0.4,-0.8 0.8,0.8 0.4,1.4 0.7,2.7 0.5,2.8 z M 231,197 c 0,0.5 -0.5,1 -1.1,1 -0.5,0 -0.7,-0.5 -0.4,-1 0.3,-0.6 0.8,-1 1.1,-1 0.2,0 0.4,0.4 0.4,1 z"
     id="path356"
     style="fill:#000000;stroke:none;stroke-width:0.1" />
  <path
     d="m 126,193.1 c 0,0.5 0.5,0.7 1,0.4 0.6,-0.3 1,-0.8 1,-1.1 0,-0.2 -0.4,-0.4 -1,-0.4 -0.5,0 -1,0.5 -1,1.1 z"
     id="path358"
     style="fill:#000000;stroke:none;stroke-width:0.1" />
  <path
     d="m 159.8,193.8 c -1.1,1.4 -1.1,1.5 0.5,0.9 1,-0.4 1.6,-0.3 1.3,0.1 -0.2,0.4 -0.1,1.4 0.5,2.2 0.7,1.2 0.9,1 0.9,-0.8 0,-1.2 0.5,-2.2 1.1,-2.2 0.6,0 0.8,0.8 0.4,1.9 -0.3,1.2 0,2.1 0.9,2.4 1,0.4 1.8,-0.2 2.2,-1.6 0.4,-1.2 1.4,-2.7 2.3,-3.4 1.4,-1 1.4,-1.1 -0.2,-0.9 -1,0.1 -2.2,0.9 -2.7,1.6 -0.8,1.2 -1,1.2 -1.5,-0.1 -0.8,-2 -4.1,-2.1 -5.7,-0.1 z"
     id="path360"
     style="fill:#000000;stroke:none;stroke-width:0.1" />
  <path
     d="m 275.5,193 c -0.3,0.5 0.1,1 1,1 0.9,0 1.3,-0.5 1,-1 -0.3,-0.6 -0.8,-1 -1,-1 -0.2,0 -0.7,0.4 -1,1 z"
     id="path362"
     style="fill:#000000;stroke:none;stroke-width:0.1" />
  <path
     d="m 173,194.7 c 0,2 0.3,2.1 3.2,1.2 3.5,-1 4.8,-0.5 3,1.3 -1.7,1.7 -1.5,3.3 0.2,1.9 0.7,-0.6 2.8,-1 4.7,-0.9 2,0.2 3.4,-0.3 3.7,-1.1 0.3,-1 0.8,-0.7 1.7,0.9 0.7,1.2 1.5,1.8 1.8,1.3 0.4,-0.6 -0.5,-2.3 -1.9,-3.8 -2.4,-2.6 -2.6,-2.7 -3.9,-0.9 -1,1.3 -1.7,1.5 -2.2,0.8 -1.2,-1.6 -5.6,-2.5 -7.3,-1.4 -0.9,0.6 -1.7,0.5 -2.2,-0.3 -0.5,-0.8 -0.8,-0.4 -0.8,1 z"
     id="path364"
     style="fill:#000000;stroke:none;stroke-width:0.1" />
  <path
     d="m 195.2,194.6 c -1.5,1 -2.1,1.1 -2.4,0.2 -0.3,-0.7 -0.7,-0.5 -1.1,0.6 -0.6,1.5 -0.3,1.7 2.2,1.1 2.2,-0.5 3.2,-0.2 4,1.2 0.9,1.6 1.2,1.6 2.1,0.3 0.8,-1.3 1,-1.3 1,0.2 0,1.9 1.5,2.4 2.4,0.9 0.7,-1 -2.3,-4.5 -4.5,-5.3 -0.9,-0.4 -2.6,0 -3.7,0.8 z"
     id="path366"
     style="fill:#000000;stroke:none;stroke-width:0.1" />
  <path
     d="m 205.1,194.9 c -1.2,2.1 0.3,4.1 3.2,4.1 1.3,0 1.7,-0.5 1.3,-1.6 -0.3,-0.9 -0.6,-1.9 -0.6,-2.4 0,-1.7 -3,-1.8 -3.9,-0.1 z"
     id="path368"
     style="fill:#000000;stroke:none;stroke-width:0.1" />
  <path
     d="m 170.1,196.4 c -0.8,1.4 -1.1,2.9 -0.8,3.3 0.4,0.3 0.7,-0.1 0.7,-1 0,-0.8 0.5,-1.7 1.2,-1.9 0.6,-0.2 0.9,-1 0.7,-1.7 -0.3,-0.8 -1,-0.3 -1.8,1.3 z"
     id="path370"
     style="fill:#000000;stroke:none;stroke-width:0.1" />
  <path
     d="m 210.6,194.9 c -0.4,0.7 -0.5,1.5 -0.2,1.8 0.9,0.9 1.9,-0.4 1.4,-1.8 -0.4,-1.1 -0.6,-1.1 -1.2,0 z"
     id="path372"
     style="fill:#000000;stroke:none;stroke-width:0.1" />
  <path
     d="m 100.7,196.2 c -1.1,0.9 -1.4,1.8 -0.8,2.7 0.7,1.1 1,0.9 1.6,-0.8 0.5,-1.6 1.2,-2 2.6,-1.6 1.1,0.4 1.9,0.2 1.9,-0.4 0,-1.5 -3.2,-1.4 -5.3,0.1 z"
     id="path374"
     style="fill:#000000;stroke:none;stroke-width:0.1" />
  <path
     d="m 108.8,195.7 c -1,0.2 -1.8,1.2 -1.8,2.1 0,1.5 0.2,1.5 1,0.2 1,-1.6 1.3,-0.9 1.1,3 -0.1,1.8 0.1,2.1 0.7,1.1 0.7,-0.9 1.2,-1 1.6,-0.2 0.4,0.6 1.2,0.9 1.7,0.6 0.5,-0.4 1.2,0.1 1.5,1 0.4,0.9 1.3,1.4 2,1.1 0.7,-0.3 1.6,-0.1 1.9,0.3 0.2,0.5 1.3,1.1 2.3,1.3 1.3,0.4 1.8,-0.1 2,-2 0.2,-2.4 0.1,-2.5 -1.1,-0.8 -1.3,1.8 -1.4,1.8 -2,0.2 -0.4,-1 -0.5,-2.2 -0.1,-2.7 0.3,-0.5 0,-0.9 -0.6,-0.9 -0.6,0 -1.9,-0.8 -2.8,-1.7 -1.6,-1.6 -1.7,-1.5 -2,0.5 -0.4,2.8 -1.8,2.8 -3.3,0.1 -0.9,-1.7 -0.8,-2.3 0.2,-3 1.5,-0.9 0.6,-1 -2.3,-0.2 z m 7.6,4.9 c 0.3,0.8 0.2,1.2 -0.4,0.9 -0.6,-0.3 -1,-1 -1,-1.6 0,-1.4 0.7,-1.1 1.4,0.7 z"
     id="path376"
     style="fill:#000000;stroke:none;stroke-width:0.1" />
  <path
     d="m 102.6,199.7 c -0.7,1.7 0.8,1.7 2.3,0 0.8,-1 0.7,-1.4 -0.4,-1.4 -0.8,0 -1.6,0.6 -1.9,1.4 z"
     id="path378"
     style="fill:#000000;stroke:none;stroke-width:0.1" />
  <path
     d="m 129.5,204.1 c -0.4,0.6 -1.8,0.9 -3.1,0.6 -1.6,-0.3 -2.4,0 -2.4,1 0,1.6 4.7,3.6 6.8,2.8 0.9,-0.3 1.8,-0.1 2.2,0.4 0.3,0.6 2.4,1.3 4.5,1.7 2.2,0.3 4.8,1 5.7,1.5 2,1.1 5.8,1.2 5.8,0.1 -0.1,-1.7 -2.8,-4.3 -3.5,-3.3 -0.3,0.6 -0.1,1.1 0.4,1.1 0.6,0 1.1,0.5 1.1,1 0,0.6 -0.8,0.5 -2,-0.2 -1.1,-0.7 -2,-2.1 -2,-3.2 0,-1.7 -0.1,-1.8 -2.6,-0.1 -2.5,1.6 -2.6,1.6 -1.9,-0.4 0.5,-1.5 0.2,-2.1 -1,-2.1 -0.9,0 -1.3,0.4 -1,1 0.3,0.5 0.1,1 -0.4,1 -0.6,0 -1.1,-0.6 -1.1,-1.4 0,-0.8 -0.5,-1.8 -1.1,-2.2 -0.7,-0.4 -0.9,0 -0.5,1.3 0.5,1.5 0.1,1.9 -2.1,2.1 -2.5,0.2 -2.6,0.1 -0.8,-1.1 1.1,-0.9 1.4,-1.6 0.7,-2.1 -0.6,-0.3 -1.4,-0.1 -1.7,0.5 z M 142,209 c 0,0.5 -0.4,1 -1,1 -0.5,0 -1,-0.5 -1,-1 0,-0.6 0.5,-1 1,-1 0.6,0 1,0.4 1,1 z"
     id="path380"
     style="fill:#000000;stroke:none;stroke-width:0.1" />
  <path
     d="m 150.3,209.4 c 0,0.8 1,1.7 2.3,2 1.2,0.3 2.1,1.3 2,2.2 -0.1,1.2 0.8,1.7 2.7,1.8 2,0.1 2.7,-0.3 2.7,-1.7 0,-1.6 -0.2,-1.7 -1.5,-0.7 -0.9,0.7 -1.9,0.9 -2.3,0.5 -0.4,-0.4 -0.1,-1 0.6,-1.2 0.7,-0.3 -0.4,-1.3 -2.5,-2.4 -2,-1 -3.8,-1.9 -3.8,-1.9 -0.1,0 -0.2,0.6 -0.2,1.4 z"
     id="path382"
     style="fill:#000000;stroke:none;stroke-width:0.1" />
  <path
     d="m 167,212.1 c 0,0.5 0.5,0.7 1,0.4 0.6,-0.3 1,-0.8 1,-1.1 0,-0.2 -0.4,-0.4 -1,-0.4 -0.5,0 -1,0.5 -1,1.1 z"
     id="path384"
     style="fill:#000000;stroke:none;stroke-width:0.1" />
  <path
     d="m 150,213 c 0,0.6 0.7,1 1.5,1 0.8,0 1.5,-0.2 1.5,-0.4 0,-0.2 -0.7,-0.6 -1.5,-1 -0.8,-0.3 -1.5,-0.1 -1.5,0.4 z"
     id="path386"
     style="fill:#000000;stroke:none;stroke-width:0.1" />
  <path
     d="m 162.5,213.7 c -0.7,2 -0.8,1.9 1.5,2 1.3,0.1 2,-0.4 2,-1.6 0,-2.1 -2.7,-2.4 -3.5,-0.4 z"
     id="path388"
     style="fill:#000000;stroke:none;stroke-width:0.1" />
  <path
     d="m 172.4,214.4 c -1.7,3.7 -0.2,5.2 3,3.1 2.3,-1.6 2.6,-1.6 2.6,-0.1 0,0.9 0.6,1.7 1.3,1.7 0.6,0.1 2.3,0.3 3.7,0.4 1.4,0.2 3.1,-0.2 3.8,-0.8 0.9,-0.7 1.6,-0.7 2,-0.1 0.4,0.5 1.6,0.9 2.7,0.9 1.1,0 3,0.3 4.1,0.7 1.2,0.3 2.6,0.2 3.3,-0.5 0.8,-0.8 1.1,-0.7 1.1,0.6 0,1 0.5,1.4 1.5,1.1 0.8,-0.4 1.5,-1.5 1.5,-2.5 0,-1 0.5,-1.9 1.1,-1.9 0.6,0 0.9,0.7 0.6,1.5 -0.4,0.8 -0.2,1.7 0.3,2 0.6,0.4 1,-0.3 1,-1.5 0,-2.9 -1.9,-3.3 -7,-1.5 -2.3,0.8 -4.5,1.3 -4.8,1 -0.3,-0.3 0,-0.5 0.7,-0.5 0.7,0 0.9,-0.5 0.6,-1 -0.3,-0.5 -1.3,-1 -2.1,-1 -0.8,0 -1.2,0.4 -0.9,1 0.3,0.6 -0.1,0.7 -0.9,0.4 -0.9,-0.3 -1.6,-1.4 -1.6,-2.3 0,-1.3 -0.2,-1.3 -0.9,-0.2 -0.5,0.7 -1.4,1 -2,0.7 -0.6,-0.4 -1.1,-0.1 -1.1,0.6 -0.1,0.8 -0.4,0.7 -1,-0.4 -1.3,-2.2 -8.9,-1.5 -10.8,0.9 -1.2,1.6 -1.3,1.4 -0.7,-1.5 0.8,-3.8 0.4,-4.1 -1.1,-0.8 z m 8.6,2.6 c 0,0.5 -0.4,1 -1,1 -0.5,0 -1,-0.5 -1,-1 0,-0.6 0.5,-1 1,-1 0.6,0 1,0.4 1,1 z m 3.3,0.4 c 0.4,1 0.1,1.3 -0.9,0.9 -0.7,-0.3 -1.4,-0.9 -1.4,-1.4 0,-1.4 1.7,-1 2.3,0.5 z"
     id="path390"
     style="fill:#000000;stroke:none;stroke-width:0.1" />
  <path
     d="m 168.6,214.5 c -0.8,2.2 -0.8,2.2 0.8,2.8 1.1,0.4 1.3,0 1.1,-1.5 -0.6,-2.8 -1.1,-3.2 -1.9,-1.3 z"
     id="path392"
     style="fill:#000000;stroke:none;stroke-width:0.1" />
  <path
     d="m 208,217.5 c 0,0.8 0,1.8 -0.1,2.2 0,0.4 0.4,0.9 0.9,1.1 0.6,0.2 0.9,-0.8 0.8,-2.3 -0.1,-2.6 -1.6,-3.6 -1.6,-1 z"
     id="path394"
     style="fill:#000000;stroke:none;stroke-width:0.1" />
  <path
     d="m 240.6,217.5 c -0.3,0.8 -1.6,1.5 -2.8,1.6 -1.3,0 -1.7,0.3 -1,0.6 1.6,0.6 6.2,-1.6 6.2,-2.9 0,-1.4 -1.8,-0.9 -2.4,0.7 z"
     id="path396"
     style="fill:#000000;stroke:none;stroke-width:0.1" />
  <path
     d="m 214.2,218.1 c -1.3,0.5 -2.8,0.7 -3.3,0.4 -0.5,-0.4 -0.7,0 -0.4,0.7 0.6,1.5 5.5,2.1 5.5,0.7 0,-0.6 0.9,-0.5 2.1,0.1 2.3,1.3 4.1,0.4 2,-1 -1.1,-0.6 -1,-0.9 0.5,-1.3 1.2,-0.3 0.8,-0.5 -1.1,-0.5 -1.6,0 -4.1,0.3 -5.3,0.9 z"
     id="path398"
     style="fill:#000000;stroke:none;stroke-width:0.1" />
  <path
     d="m 223.8,218.1 c -0.7,0.4 -0.9,1.1 -0.5,1.5 0.3,0.4 1.3,0.1 2.2,-0.6 0.9,-0.7 1.8,-1 2.2,-0.6 0.3,0.3 0.1,0.6 -0.5,0.6 -0.7,0 -1.2,0.4 -1.2,1 0,0.5 0.7,1 1.5,1 0.8,0 1.5,-0.5 1.5,-1 0,-0.6 1,-0.8 2.4,-0.4 1.5,0.3 2.5,0.1 2.8,-0.8 0.4,-1 -0.7,-1.3 -4.3,-1.4 -2.6,-0.1 -5.3,0.3 -6.1,0.7 z"
     id="path400"
     style="fill:#000000;stroke:none;stroke-width:0.1" />
</svg>
